<?xml version="1.0" standalone="no"?>
<!DOCTYPE svg PUBLIC "-//W3C//DTD SVG 1.1//EN" "http://www.w3.org/Graphics/SVG/1.1/DTD/svg11.dtd" >
<svg xmlns="http://www.w3.org/2000/svg">
<metadata></metadata>
<defs>
<font id="playfair_displayblack_italic" horiz-adv-x="1192" >
<font-face units-per-em="2048" ascent="1638" descent="-410" />
<missing-glyph horiz-adv-x="526" />
<glyph unicode="&#xfb01;" horiz-adv-x="1268" d="M-119 -385l378 1405h-163l13 41h161q47 160 122 266t186 168q108 60 231.5 83.5t292.5 23.5q109 0 170 -30q78 -34 78 -110q0 -63 -33.5 -111.5t-91 -75t-127.5 -26.5q-89 0 -134.5 34.5t-45.5 100.5q0 128 102 178q-106 -12 -174 -57q-61 -39 -102.5 -110t-73.5 -185 l-40 -149h236q213 3 371 31l-264 -918q-9 -27 -9 -50q0 -36 33 -36q61 0 109 129l43 115h39l-51 -150q-41 -115 -126 -163t-177 -48q-100 0 -151.5 53t-51.5 151q0 65 24 149l199 696h-235l-367 -1376q-203 -3 -371 -29z" />
<glyph unicode="&#xfb02;" horiz-adv-x="1286" d="M-119 -385l378 1405h-163l13 41h161q39 136 94 229t134 150q139 100 370 104q163 1 293 22t256 62l-432 -1454q-6 -22 -6 -38q0 -25 11.5 -36.5t27.5 -11.5q20 0 47.5 25.5t56.5 103.5l43 115h39l-51 -150q-41 -119 -121 -165t-170 -46q-102 0 -159 53t-57 155 q0 63 24 145l313 1042q10 37 10 57q0 39 -29 57.5t-97 20.5q-58 -2 -93 -28q-43 -37 -69 -134l-74 -278h162l-13 -41h-160l-368 -1376q-203 -3 -371 -29z" />
<glyph horiz-adv-x="0" />
<glyph horiz-adv-x="682" />
<glyph unicode="&#xd;" horiz-adv-x="0" />
<glyph unicode=" "  horiz-adv-x="526" />
<glyph unicode="&#x09;" horiz-adv-x="526" />
<glyph unicode="&#xa0;" horiz-adv-x="526" />
<glyph unicode="!" horiz-adv-x="713" d="M74 106q0 63 30 112.5t82 77.5t117 28q79 0 120.5 -35.5t41.5 -104.5q0 -54 -31 -103t-84 -79.5t-116 -30.5q-79 0 -119.5 34.5t-40.5 100.5zM279 408q30 130 30 293q0 68 -7 207.5t-7 213.5q0 117 27.5 226t93 181.5t172.5 72.5q82 0 127 -47.5t45 -141.5 q0 -104 -49 -213.5t-195.5 -360t-200.5 -438.5z" />
<glyph unicode="&#x22;" horiz-adv-x="930" d="M276 1278q0 57 26.5 107t75 80t109.5 30q59 0 95.5 -31t38.5 -86q0 -60 -35 -120t-108.5 -155t-100.5 -145h-29q-11 73 -31.5 139t-30.5 104.5t-10 76.5zM682 1278q0 57 26.5 107t75 80t109.5 30q59 0 95.5 -31t38.5 -86q0 -60 -35 -120t-108.5 -155t-100.5 -145h-29 q-11 73 -31.5 139t-30.5 104.5t-10 76.5z" />
<glyph unicode="#" horiz-adv-x="1262" d="M53 506l19 41h300l159 342h-300l17 41h302l140 303h49l-140 -303h334l140 303h49l-140 -303h292l-17 -41h-294l-159 -342h294l-21 -41h-292l-138 -299h-49l138 299h-334l-138 -299h-49l138 299h-300zM421 547h334l159 342h-334z" />
<glyph unicode="$" horiz-adv-x="1329" d="M10 322q0 69 22 124t63 87t95 32q79 0 127 -55t48 -145q0 -79 -31.5 -150t-75.5 -139q50 -31 122 -46l152 547q-88 82 -147 148t-98 141.5t-39 155.5q0 166 81 268t202.5 145.5t251.5 43.5l67 241h45l-67 -242q68 -1 124 -10l70 252h45l-72 -260q97 -21 189 -76 q153 -91 153 -256q0 -69 -22 -124t-63 -87t-95 -32q-78 0 -126 55t-48 145q0 79 31.5 150t75.5 139q-44 27 -108 42l-139 -501q123 -106 189 -170.5t116 -147.5t50 -171q0 -167 -96 -267.5t-235 -142.5t-286 -45l-67 -241h-45l67 241q-68 1 -125 9l-69 -250h-45l71 257 q-107 21 -204 79q-154 91 -154 256zM424 24q45 -6 98 -6h27l120 431q-33 33 -101 95zM595 21q115 12 161.5 62.5t46.5 135.5q0 83 -99 193zM598 1245q0 -75 74 -165l97 348q-76 -12 -123.5 -59t-47.5 -124zM707 1042q37 -40 100 -95l133 477q-55 8 -121 8h-4z" />
<glyph unicode="%" horiz-adv-x="1671" d="M28 -86l1706 1774l31 -27l-1706 -1774zM229 1151q0 98 64 193t175.5 155t246.5 60t212 -67.5t77 -186.5q0 -98 -63.5 -193t-174.5 -155t-246 -60q-136 0 -213.5 66.5t-77.5 187.5zM489 1051q0 -60 12 -93.5t34 -33.5q63 0 110.5 80t72.5 194t25 209q0 59 -11.5 92 t-33.5 33q-63 0 -110.5 -80t-73 -193.5t-25.5 -207.5zM758 225q0 98 64 193t175.5 155t245.5 60q135 0 212 -67t77 -187q0 -98 -63.5 -193t-174.5 -155t-245 -60q-137 0 -214 66.5t-77 187.5zM1018 125q0 -60 11.5 -93.5t33.5 -33.5q63 0 110.5 80t73 194t25.5 209 q0 58 -12 91.5t-33 33.5q-63 0 -110.5 -80t-73 -193.5t-25.5 -207.5z" />
<glyph unicode="&#x26;" horiz-adv-x="1831" d="M47 432q0 139 75 254.5t216 196.5t334 116q-105 28 -155 81.5t-50 121.5q0 76 56 129.5t146.5 80t192.5 26.5q133 0 197.5 -42.5t64.5 -113.5q0 -44 -22.5 -74.5t-56.5 -45.5t-68 -15l-2 37q43 0 72.5 27t29.5 65q0 36 -30 58t-82 22q-67 0 -129.5 -35.5t-102 -100.5 t-39.5 -147q0 -31 6 -61q75 12 129 12q74 0 74 -43q0 -22 -18.5 -32.5t-44.5 -10.5q-49 0 -142 45q-58 -26 -106.5 -92t-76.5 -156.5t-28 -187.5q0 -189 110 -286t321 -97q136 0 258.5 40t201 125.5t78.5 215.5q0 88 -38 151q-128 -39 -236 -71.5t-197 -59.5 q-92 -27 -134 -64.5t-42 -90.5q0 -54 36.5 -76.5t90.5 -22.5q80 0 137 41t80 90l35 -14q-16 -38 -51 -74.5t-88.5 -61t-120.5 -24.5q-68 0 -127.5 26.5t-97 84t-37.5 143.5q0 130 92 226.5t278 152.5q122 37 258 77.5t285 86.5q93 28 142.5 48t90.5 60.5t41 104.5 q0 51 -27 89t-73 57.5t-102 19.5q-33 0 -56 -8q119 -46 119 -148q0 -52 -31 -90.5t-80.5 -59t-103.5 -20.5q-53 0 -95.5 20.5t-66.5 57t-24 82.5q0 61 38.5 104.5t104.5 67.5q70 29 178 29q293 0 293 -299q0 -129 -54.5 -217.5t-157 -147.5t-263.5 -108q47 -77 47 -177 q0 -133 -86 -262t-262.5 -213t-431.5 -84q-192 0 -344 51t-240 155t-88 255z" />
<glyph unicode="'" horiz-adv-x="524" d="M276 1278q0 57 26.5 107t75 80t109.5 30q59 0 95.5 -31t38.5 -86q0 -60 -35 -120t-108.5 -155t-100.5 -145h-29q-11 73 -31.5 139t-30.5 104.5t-10 76.5z" />
<glyph unicode="(" horiz-adv-x="860" d="M70 457q0 222 130 443.5t358.5 414.5t521.5 336l20 -27q-213 -161 -359.5 -341t-227.5 -408t-81 -512q0 -197 34.5 -358t109.5 -351l-37 -27q-154 128 -255 249t-157.5 264t-56.5 317z" />
<glyph unicode=")" horiz-adv-x="862" d="M-219 -346q213 161 359.5 341t227.5 408t81 512q0 197 -34.5 358t-109.5 351l37 27q154 -128 255 -249t157.5 -264t56.5 -317q0 -222 -130 -443.5t-358.5 -414.5t-521.5 -336z" />
<glyph unicode="*" horiz-adv-x="977" d="M173 885q0 73 83 114q36 18 81 26.5t126.5 17.5t128.5 16q-40 6 -120 16t-120.5 19t-64.5 26q-39 25 -39 67q0 43 39 89q50 63 108 63q30 0 56 -18q27 -18 47.5 -51t52.5 -97t51 -100q-5 41 -15 95t-16 92.5t-6 67.5q0 28 6 54q15 57 55 84t89 27q40 0 66 -19t26 -58 q0 -18 -4 -34q-9 -34 -32.5 -73.5t-72 -112t-76.5 -116.5q35 33 99.5 97.5t101 96.5t68.5 49q38 18 65 18q30 0 50 -17.5t28 -45.5q8 -21 8 -42q0 -73 -84 -114q-35 -18 -79.5 -26.5t-124.5 -17.5t-126 -16q39 -6 117.5 -16t118.5 -19t64 -26q39 -25 39 -66t-39 -89 q-50 -63 -108 -63q-30 0 -56 18t-46.5 50.5t-52.5 95.5t-51 97q6 -38 15.5 -90.5t15 -91t5.5 -67.5q0 -31 -7 -56q-14 -57 -54 -83.5t-87 -26.5q-42 0 -68.5 18t-26.5 57q0 13 5 35q9 36 33 77t73.5 114t76.5 115q-37 -35 -102 -100t-101 -97t-68 -49q-37 -18 -65 -18 q-30 0 -50.5 18t-28.5 45q-7 18 -7 41z" />
<glyph unicode="+" horiz-adv-x="1165" d="M94 696l19 62h477l137 483h74l-137 -483h475l-19 -62h-475l-137 -481h-74l137 481h-477z" />
<glyph unicode="," horiz-adv-x="635" d="M-2 106q0 63 30 112.5t82 77.5t117 28q166 0 166 -168q0 -144 -82 -260.5t-225 -178.5l-10 37q90 38 154.5 113t70.5 168q-61 -64 -143 -64q-77 0 -118.5 34.5t-41.5 100.5z" />
<glyph unicode="-" horiz-adv-x="1038" d="M109 455l55 202h739l-55 -202h-739z" />
<glyph unicode="." horiz-adv-x="618" d="M-2 106q0 63 30 112.5t82 77.5t117 28q79 0 120.5 -35.5t41.5 -104.5q0 -54 -31 -103t-84 -79.5t-116 -30.5q-79 0 -119.5 34.5t-40.5 100.5z" />
<glyph unicode="/" horiz-adv-x="934" d="M-96 -29l1122 1508h68l-1123 -1508h-67z" />
<glyph unicode="0" horiz-adv-x="1350" d="M39 352q0 183 106.5 354.5t285.5 278.5t384 107q140 0 243 -46.5t158.5 -132.5t55.5 -202q0 -183 -107 -354.5t-286.5 -278.5t-382.5 -107q-139 0 -242 46.5t-159 132.5t-56 202zM412 297q0 -144 31.5 -216.5t80.5 -72.5q112 0 197.5 114.5t131.5 291t46 352.5 q0 145 -31.5 217t-81.5 72q-112 0 -197.5 -114t-131 -290t-45.5 -354z" />
<glyph unicode="1" horiz-adv-x="801" d="M82 0l254 850q-68 -21 -250 -59l6 43q153 33 269.5 74t197.5 82.5t170 94.5h41l-326 -1085h-362z" />
<glyph unicode="2" horiz-adv-x="1139" d="M-55 0l10 43q24 20 228 173.5t350.5 328t146.5 323.5q0 80 -42 119t-114 39q-83 0 -165 -45.5t-134.5 -117.5t-52.5 -146q0 -50 27.5 -74.5t89.5 -24.5q55 0 97 20t93 64l25 -28q-54 -51 -113.5 -75t-114.5 -24q-63 0 -108 31t-45 109q0 92 69 179t194.5 142.5 t285.5 55.5q111 0 192.5 -28t125.5 -79t44 -117q0 -120 -122.5 -215.5t-309 -194.5t-240.5 -136q41 0 113 -18.5t119 -29t104 -10.5q88 0 143.5 25.5t55.5 72.5q0 54 -66 91l21 26q62 -35 88.5 -78t26.5 -104q0 -80 -38.5 -150.5t-120 -114.5t-202.5 -44q-69 0 -156 19 t-151.5 31t-136.5 12q-63 0 -107.5 -11.5t-109.5 -38.5z" />
<glyph unicode="3" horiz-adv-x="1104" d="M-186 -309l10 37q171 11 342.5 79.5t286 192.5t114.5 293q0 82 -24 132t-68 54q-48 -19 -72 -27t-47 -8q-36 0 -36 21q0 2 2 10q8 38 97 38q26 0 40 -1q100 46 160.5 124.5t60.5 184.5q0 87 -54 136t-153 49q-73 0 -140.5 -33t-109 -86.5t-41.5 -108.5q0 -50 28 -74 t91 -24q69 0 127 31l23 -31q-80 -43 -164 -43q-63 0 -108.5 31t-45.5 108q0 75 68 148.5t185.5 120.5t256.5 47q114 0 199 -26t130.5 -73t45.5 -108q0 -92 -76 -167.5t-191.5 -127t-238.5 -78.5q198 -3 314 -65.5t116 -198.5q0 -158 -181.5 -284t-447 -198t-499.5 -75z" />
<glyph unicode="4" horiz-adv-x="1124" d="M-127 111l12 43l1041 938h53l-252 -938h262l-12 -43h-262l-107 -400h-362l108 400h-481zM-54 154h420l135 500z" />
<glyph unicode="5" horiz-adv-x="983" d="M-190 -303l10 37q144 0 293.5 68t248.5 192.5t99 286.5q0 95 -41 143.5t-135 48.5q-88 0 -185 -55l-20 10l268 633q41 2 78 -4t118.5 -26.5t145.5 -20.5q72 0 120 20t83 72l25 -15q-56 -154 -137.5 -240.5t-184.5 -86.5q-30 0 -63 9.5t-106.5 36t-114.5 26.5 q-13 0 -19 -1l-164 -370q133 74 336 74q375 0 375 -250q0 -173 -166 -305t-407 -205t-457 -78z" />
<glyph unicode="6" horiz-adv-x="1214" d="M45 354q0 275 180.5 520.5t440.5 407t481 197.5l12 -41q-182 -54 -353 -216t-280.5 -418t-109.5 -573q0 -86 8.5 -133.5t26 -66.5t45.5 -19q72 0 134.5 100t100 243t37.5 257q0 88 -22.5 126t-57.5 38q-42 0 -83 -46t-66 -140l-35 10q41 157 124 227t206 70q90 0 160 -35 t110.5 -105.5t40.5 -170.5q0 -158 -97 -300t-261 -228.5t-355 -86.5q-387 0 -387 383z" />
<glyph unicode="7" horiz-adv-x="1053" d="M78 762q0 81 35.5 151.5t112.5 115t194 44.5q90 0 198.5 -29.5t176 -45t160.5 -15.5q56 0 98.5 16.5t74.5 61.5h60q-230 -254 -335 -386t-176.5 -280t-127.5 -370q-22 -90 -26 -118t-7 -44q-14 -73 -70.5 -119.5t-150.5 -46.5q-161 0 -161 147q0 41 13 90q50 183 224 373 t403.5 394t295.5 269q-56 -36 -168 -111t-175.5 -102.5t-134.5 -27.5q-45 0 -80 9t-98.5 34t-114.5 25q-58 0 -94.5 -27t-36.5 -84q0 -71 59 -117.5t164 -70.5l-10 -35q-303 62 -303 299z" />
<glyph unicode="8" horiz-adv-x="1219" d="M-23 242q0 147 154 272t383 211q-68 63 -108 108.5t-67.5 104t-27.5 129.5q0 120 79.5 214t211.5 146t283 52q167 0 272 -56.5t105 -165.5q0 -211 -453 -413q22 -19 102 -88t122 -144.5t42 -160.5q0 -134 -93.5 -244t-247.5 -173t-326 -63q-121 0 -218.5 29t-155 90 t-57.5 152zM342 207q0 -96 28 -147.5t93 -51.5q66 0 129 49t102 128.5t39 166.5q0 74 -26 135t-66.5 109t-102.5 106q-87 -83 -141.5 -215.5t-54.5 -279.5zM633 1155q0 -85 38.5 -151.5t108.5 -132.5q59 76 95 184t36 223q0 164 -86 164q-47 0 -91.5 -42t-72.5 -108.5 t-28 -136.5z" />
<glyph unicode="9" d="M25 477q0 158 96.5 300t260.5 228.5t355 86.5q387 0 387 -383q0 -266 -177.5 -505.5t-433 -397.5t-470.5 -191l-12 41q176 51 343 210.5t273.5 409t106.5 555.5q0 86 -9 134t-26 67t-45 19q-72 0 -135 -100t-100.5 -242.5t-37.5 -257.5q0 -88 22.5 -126t57.5 -38 q42 0 83 46t67 140l35 -10q-42 -157 -125 -227t-205 -70q-90 0 -160 35t-110.5 105.5t-40.5 170.5z" />
<glyph unicode=":" horiz-adv-x="682" d="M25 106q0 63 30 112.5t82 77.5t117 28q79 0 120.5 -35.5t41.5 -104.5q0 -54 -31 -103t-84 -79.5t-116 -30.5q-79 0 -119.5 34.5t-40.5 100.5zM229 874q0 63 30 112.5t82 77.5t117 28q79 0 120.5 -35.5t41.5 -104.5q0 -54 -31 -103t-84 -79.5t-116 -30.5 q-79 0 -119.5 34.5t-40.5 100.5z" />
<glyph unicode=";" horiz-adv-x="692" d="M12 106q0 63 30 112.5t82 77.5t117 28q166 0 166 -168q0 -144 -82 -260.5t-225 -178.5l-10 37q90 38 154.5 113t70.5 168q-61 -64 -143 -64q-77 0 -118.5 34.5t-41.5 100.5zM246 874q0 63 30 112.5t82 77.5t117 28q79 0 120.5 -35.5t41.5 -104.5q0 -54 -31 -103 t-84 -79.5t-116 -30.5q-79 0 -119.5 34.5t-40.5 100.5z" />
<glyph unicode="&#x3c;" horiz-adv-x="1204" d="M94 727l1131 465l20 -59l-997 -414l678 -357l-33 -65z" />
<glyph unicode="=" horiz-adv-x="1313" d="M121 553l18 61h1026l-18 -61h-1026zM203 840l18 61h1026l-18 -61h-1026z" />
<glyph unicode="&#x3e;" horiz-adv-x="1210" d="M92 377l942 393l-758 406l33 59l879 -473l-1075 -445z" />
<glyph unicode="?" horiz-adv-x="1061" d="M154 633q0 73 38.5 136t94 113t168.5 142q23 18 125 100.5t141 143t39 121.5q0 74 -41.5 117.5t-118.5 43.5q-93 0 -151 -37q50 3 97 -16.5t76 -57.5t29 -85q0 -49 -25 -91t-68.5 -67t-96.5 -25q-47 0 -90 21t-70 60.5t-27 93.5q0 96 70.5 153t172.5 80t208 23 q118 0 221 -29.5t166.5 -89t63.5 -144.5q0 -58 -40.5 -117t-121.5 -128.5t-223 -171.5q-140 -100 -208.5 -161t-94 -106.5t-25.5 -101.5q0 -55 35 -90t100 -35q74 0 131 29q-53 17 -90 59.5t-37 106.5q0 47 22 84.5t61.5 59t90.5 21.5q40 0 75 -19t56 -52.5t21 -73.5 q0 -92 -65 -150.5t-159.5 -84t-187.5 -25.5q-103 0 -184.5 27.5t-129.5 83.5t-48 139zM231 106q0 63 30 112.5t82 77.5t117 28q79 0 120.5 -35.5t41.5 -104.5q0 -54 -31 -103t-84 -79.5t-116 -30.5q-79 0 -119.5 34.5t-40.5 100.5z" />
<glyph unicode="@" horiz-adv-x="1788" d="M55 338q0 233 118 451.5t346.5 357.5t541.5 139q203 0 351 -62.5t229 -187t81 -305.5q0 -213 -103.5 -367t-254 -232.5t-285.5 -78.5q-171 0 -171 146q0 16 2 40q-98 -186 -283 -186q-108 0 -178 59.5t-70 192.5q0 138 76 297.5t203.5 268t273.5 108.5q79 0 114.5 -35.5 t38.5 -104.5l33 111q193 0 309 29l-217 -731q-13 -45 -13 -74q0 -45 38 -45q60 0 167.5 69t192 204.5t84.5 326.5q0 174 -77 290t-215.5 173t-325.5 57q-297 0 -516 -133.5t-333 -343t-114 -430.5q0 -206 98 -340t258 -195t351 -61q146 0 284.5 34.5t251.5 98.5l13 -26 q-102 -65 -243 -103.5t-304 -38.5q-200 0 -370 62t-276 202.5t-106 362.5zM700 299q0 -65 15.5 -94t52.5 -29q55 0 99.5 57t86.5 175l103 339q4 27 4 49q0 95 -62 95q-52 0 -123.5 -90t-123.5 -227.5t-52 -274.5z" />
<glyph unicode="A" horiz-adv-x="1370" d="M-197 0l9 41q40 11 74 36.5t73.5 73t101.5 134.5l836 1175q33 -4 79 -4t75 4l82 -1288q5 -67 34 -98t66 -33l-8 -41q-120 6 -346 6q-238 0 -349 -6l9 41q66 3 103 15.5t55.5 43t18.5 87.5q0 17 -1 26l-18 336h-402l-199 -281q-48 -70 -48 -117q0 -96 188 -110l-9 -41 q-211 6 -290 6q-70 0 -134 -6zM324 590h371l-25 489z" />
<glyph unicode="B" horiz-adv-x="1454" d="M-98 0l8 41q74 3 110.5 16t58.5 48t42 112l270 1016q18 67 18 99q0 40 -30 57.5t-109 19.5l11 41q126 -6 356 -6q83 0 166.5 2t138.5 2q496 0 496 -277q0 -110 -75.5 -202t-220 -148.5t-343.5 -62.5h16q159 0 276 -37q123 -39 187.5 -109t64.5 -161q0 -142 -85.5 -243.5 t-246.5 -154.5t-384 -53q-46 0 -145.5 3t-217.5 3q-233 0 -362 -6zM521 124q0 -77 81 -77q86 0 156.5 64.5t110.5 167.5t40 213q0 107 -45.5 175t-150.5 68h-39l-137 -518q-16 -60 -16 -93zM683 770h30q103 0 176 66t110 172.5t37 226.5q0 83 -24 128.5t-90 45.5 q-30 0 -48 -12t-31.5 -42.5t-29.5 -90.5z" />
<glyph unicode="C" horiz-adv-x="1450" d="M76 496q0 246 135.5 473t373.5 368.5t529 141.5q112 0 181 -35.5t122 -97.5q15 -18 30 -18q38 0 83 122h43q-68 -177 -131 -471h-45q20 118 20 177q0 90 -35 149q-38 65 -92 90.5t-133 25.5q-161 0 -301.5 -133.5t-224.5 -355.5t-84 -475q0 -207 70.5 -307.5 t197.5 -100.5q69 0 141.5 31.5t124.5 87.5q54 58 94 129t91 195h45q-97 -355 -121 -492h-45q6 44 6 70q0 52 -26 52q-16 0 -42 -18q-192 -133 -409 -133q-305 0 -451.5 136t-146.5 389z" />
<glyph unicode="D" horiz-adv-x="1642" d="M-88 0l6 41q70 3 105.5 16t57.5 48.5t42 111.5l268 1016q13 49 13 80q0 44 -29.5 68t-102.5 28l7 41q163 -7 318 -7l75 1q171 6 303 6q307 0 476 -130t169 -384q0 -222 -106.5 -436.5t-339.5 -357t-590 -142.5q-43 0 -133 3t-191 3q-225 0 -348 -6zM514 91q0 -30 19 -42 t67 -12q180 0 316.5 149.5t209 376t72.5 447.5q0 403 -260 403q-46 0 -65.5 -12t-30 -40.5t-35.5 -123.5l-268 -1024q-25 -93 -25 -122z" />
<glyph unicode="E" horiz-adv-x="1305" d="M-98 0l8 41q74 3 110.5 16t58.5 48t42 112l270 1016q17 65 17 98q0 31 -13.5 47t-42.5 22.5t-82 8.5l11 41q235 -6 710 -6q295 0 424 6q-50 -129 -78 -242q-11 -46 -26 -127h-45v8q0 113 -26 182q-28 71 -82.5 101.5t-139.5 30.5h-6q-71 0 -106.5 -12t-57 -46.5 t-41.5 -111.5l-128 -483h36q64 0 123 31.5t103 84t67 113.5h45q-26 -79 -43.5 -148.5t-26.5 -101.5q-27 -102 -53 -250h-45q0 54 -19 106.5t-63.5 88t-116.5 35.5h-18l-131 -492q-18 -70 -18 -100q0 -29 13.5 -44t41.5 -20.5t79 -5.5h27q100 0 175.5 34.5t140.5 113 t132 215.5h46q-14 -36 -44 -148q-32 -117 -53 -262q-139 6 -463 6q-475 0 -712 -6z" />
<glyph unicode="F" horiz-adv-x="1235" d="M-98 0l8 41q74 3 110.5 16t58.5 48t42 112l270 1016q17 65 17 98q0 31 -13.5 47t-42.5 22.5t-82 8.5l11 41q235 -6 710 -6q295 0 424 6q-41 -108 -78 -242q-36 -130 -47 -188h-45q3 39 3 73q0 166 -66 238t-185 72h-6q-64 0 -96 -12t-51 -46.5t-37 -111.5l-128 -483h56 q92 0 169 61.5t124 167.5h45q-38 -115 -69 -250q-25 -99 -64 -311h-45q0 141 -49 216t-139 75h-39l-131 -492q-15 -57 -15 -91t17 -51.5t53.5 -24.5t105.5 -9l-8 -41q-138 6 -407 6q-258 0 -381 -6z" />
<glyph unicode="G" horiz-adv-x="1559" d="M61 440q0 237 134.5 479.5t373 401t533.5 158.5q84 0 145 -17t104 -45t87 -71q19 -19 35 -19q39 0 81 123h45q-67 -180 -131 -471h-45q11 83 11 154q0 48 -6 81.5t-23 67.5q-39 77 -119 118.5t-196 41.5q-186 0 -325.5 -178t-213.5 -430.5t-74 -460.5q0 -183 62.5 -272 t189.5 -89q68 0 107 29q28 20 42 52.5t35 111.5l48 180q18 68 18 106q0 36 -17 54.5t-52.5 26t-102.5 10.5l10 41q129 -7 389 -7q234 0 338 7l-10 -41q-49 -4 -73 -16.5t-41 -46.5t-38 -113l-108 -406h-41v6q0 57 -19 84q-20 27 -61 27q-38 0 -79.5 -15.5t-85.5 -37 t-70 -33.5q-129 -60 -263 -60q-184 0 -317.5 55t-205 160.5t-71.5 253.5z" />
<glyph unicode="H" horiz-adv-x="1733" d="M-96 0l10 41q71 3 107 16t58 48.5t42 111.5l270 1016q17 65 17 98q0 31 -13.5 47t-42.5 22.5t-82 8.5l11 41q118 -6 383 -6q220 0 364 6l-10 -41q-75 -3 -111.5 -16t-58 -48t-41.5 -112l-128 -483h452l129 483q17 65 17 98q0 31 -14 47t-42.5 22.5t-81.5 8.5l10 41 q123 -6 360 -6q261 0 387 6l-10 -41q-75 -3 -111.5 -16t-58 -48t-41.5 -112l-270 -1016q-18 -70 -18 -100t13.5 -45.5t42.5 -22t83 -8.5l-8 -41q-123 6 -385 6q-237 0 -363 -6l8 41q74 3 111 16t58.5 48t41.5 112l131 492h-452l-131 -492q-18 -70 -18 -100t13.5 -45.5 t42.5 -22t82 -8.5l-8 -41q-126 6 -362 6q-257 0 -383 -6z" />
<glyph unicode="I" horiz-adv-x="864" d="M-96 0l10 41q71 3 107 16t58 48.5t42 111.5l270 1016q17 65 17 98q0 31 -13.5 47t-42.5 22.5t-82 8.5l11 41q113 -6 362 -6q232 0 385 6l-10 -41q-75 -3 -111.5 -16t-58 -48t-41.5 -112l-270 -1016q-18 -70 -18 -100t13.5 -45.5t42.5 -22t82 -8.5l-8 -41q-132 6 -383 6 q-242 0 -362 -6z" />
<glyph unicode="J" horiz-adv-x="1464" d="M31 -203q0 80 55.5 129t157.5 49q90 0 148.5 -38.5t58.5 -110.5q0 -116 -134 -172q21 -4 48 -4q60 0 100.5 39.5t72.5 120t74 231.5l142 496q26 92 61 172h-280l6 41h293q63 128 151 227t194 177.5t265 176.5q-111 -31 -228.5 -96t-188.5 -94t-179 -29q-58 0 -111 14 t-145 47t-141 33q-52 0 -84.5 -25.5t-32.5 -78.5q0 -147 282 -164l-4 -37q-206 13 -325 96.5t-119 229.5q0 132 82.5 209t243.5 77q144 0 270.5 -66t203 -99t201.5 -33q80 0 173 17.5t163 53.5q79 120 128 120q14 0 28 -11q13 -11 13 -25q0 -50 -150 -106 q-104 -95 -174 -244t-132 -370h205l-6 -41h-210l-21 -80l-127 -496q-60 -234 -225.5 -376t-464.5 -142q-154 0 -246 43t-92 139z" />
<glyph unicode="K" horiz-adv-x="1604" d="M-96 0l10 41q71 3 107 16t58 48.5t42 111.5l270 1016q17 65 17 98q0 31 -13.5 47t-42.5 22.5t-82 8.5l11 41q119 -6 383 -6q220 0 364 6l-10 -41q-75 -3 -111.5 -16t-58 -48t-41.5 -112l-270 -1016q-18 -70 -18 -100t13.5 -45.5t42.5 -22t82 -8.5l-8 -41q-126 6 -362 6 q-257 0 -383 -6zM721 742q0 4 2 14q5 21 18 31t40 10q37 0 115 -21q120 18 173.5 109t103 277t105.5 249q60 68 162 68q69 0 124 -28.5t86 -80.5t31 -121q0 -61 -27.5 -117.5t-80 -92t-123.5 -35.5q-46 0 -85.5 19t-64 57.5t-24.5 93.5q0 81 57 153t154 107q-20 10 -53 10 q-43 0 -72 -14.5t-53 -43.5q-49 -59 -98 -229t-96 -265.5t-152 -126.5q133 -9 211 -42t111.5 -88t33.5 -136q0 -40 -8 -93l-33 -205q-1 -4 -1 -11q0 -20 13 -32.5t33 -12.5q56 0 88 99l35 104h41l-53 -158q-37 -110 -115 -164.5t-176 -54.5q-89 0 -152 28t-95.5 78 t-32.5 116q0 21 5 51l58 323q8 50 8 78q0 62 -38 90q-90 -23 -128 -23q-47 0 -47 30z" />
<glyph unicode="L" horiz-adv-x="1264" d="M-98 0l8 41q74 3 110.5 16t58.5 48t42 112l270 1016q17 65 17 98q0 31 -13.5 47t-42.5 22.5t-82 8.5l11 41q119 -6 387 -6q214 0 358 6l-10 -41q-75 -3 -111.5 -16t-58 -48t-41.5 -112l-270 -1016q-18 -70 -18 -100q0 -29 13.5 -44t41.5 -20.5t79 -5.5h37 q75 0 158.5 38.5t162.5 124.5t134 220h45q-21 -54 -49 -168q-32 -108 -54 -262q-139 6 -462 6q-484 0 -721 -6z" />
<glyph unicode="M" horiz-adv-x="1944" d="M-96 0l8 41q96 4 148 69.5t79 170.5l254 952q17 65 17 98q0 31 -13.5 47t-42.5 22.5t-82 8.5l11 41q112 -6 346 -6q109 0 188 6l119 -934l592 928h201q225 0 378 6l-10 -41q-75 -3 -111.5 -16t-58 -48t-41.5 -112l-270 -1016q-17 -65 -17 -98q0 -31 13.5 -47t42.5 -22.5 t82 -8.5l-8 -41q-151 6 -377 6q-252 0 -369 -6l8 41q75 3 111.5 16t58 48t41.5 112l297 1104l-850 -1331h-45l-182 1196l-238 -905q-15 -55 -15 -98q0 -137 181 -142l-8 -41q-73 6 -244 6q-126 0 -194 -6z" />
<glyph unicode="N" horiz-adv-x="1763" d="M-174 68q0 64 30.5 113t82.5 75.5t116 26.5q84 0 133.5 -40.5t49.5 -111.5q0 -60 -28 -109t-76.5 -80.5t-108.5 -41.5q15 -17 51 -17q103 0 176 115q77 120 158.5 430t177.5 801v4q12 57 12 91t-14.5 51.5t-47.5 24.5t-96 9l11 41q64 -6 182 -6q95 0 166 6l447 -870 q157 649 284 833q90 131 221 131q71 0 125.5 -29t84.5 -79t30 -111q0 -64 -30.5 -113t-83 -75.5t-116.5 -26.5q-84 0 -133 40t-49 112q0 60 27.5 109t76 80.5t109.5 41.5q-16 16 -51 16q-50 0 -94.5 -30.5t-79.5 -81.5q-91 -136 -189 -477t-223 -930h-45l-536 975 q-173 -831 -291 -988q-45 -60 -95.5 -94.5t-123.5 -34.5q-71 0 -125.5 29t-84.5 79t-30 112z" />
<glyph unicode="O" horiz-adv-x="1657" d="M70 463q0 232 124.5 469t348.5 392t504 155q188 0 324 -58t209 -169t73 -267q0 -231 -125.5 -467.5t-350 -391.5t-503.5 -155q-188 0 -324 58t-208 168.5t-72 265.5zM512 436q0 -131 23 -228t64 -148.5t93 -51.5q129 0 249 147.5t193.5 381.5t73.5 477q0 131 -23 228 t-63.5 148.5t-93.5 51.5q-129 0 -249 -147.5t-193.5 -381.5t-73.5 -477z" />
<glyph unicode="P" horiz-adv-x="1391" d="M-98 0l8 41q74 3 110.5 16t58.5 48t42 112l270 1016q14 78 14 94q0 41 -29 59.5t-106 22.5l11 41q119 -6 374 -6q49 0 148.5 2t150.5 2q270 0 400.5 -76t130.5 -233q0 -155 -107 -279.5t-301 -198t-445 -79.5l-97 -365q-14 -50 -14 -82q0 -45 30.5 -67.5t103.5 -26.5 l-8 -41q-141 6 -356 6q-266 0 -389 -6zM643 624q143 10 235 99.5t133.5 216.5t41.5 254q0 106 -38 160.5t-120 54.5q-33 0 -44.5 -19t-23.5 -69t-22 -88z" />
<glyph unicode="Q" horiz-adv-x="1772" d="M-70 6q0 74 40.5 134t112 94t159.5 34q78 0 159.5 -27t158 -69.5t177.5 -107.5q177 96 307.5 236t202.5 321.5t72 394.5q0 205 -72 315.5t-209 110.5q-131 0 -232.5 -96t-157.5 -246.5t-56 -306.5q0 -73 16 -122.5t58.5 -77.5t119.5 -28q78 0 146.5 28t118 77t75.5 112 q22 51 25 109q-21 -75 -79 -109t-122 -34q-54 0 -95 24.5t-63 68t-22 97.5q0 65 31 118t83.5 83t114.5 30q93 0 146 -66t53 -177q0 -128 -69.5 -225t-194 -150t-283.5 -53q-141 0 -253 42.5t-176 125.5t-64 200q0 169 129.5 310t343.5 222t456 81q192 0 344.5 -51.5 t239 -144.5t86.5 -214q0 -156 -142 -345t-368.5 -369t-474.5 -313q118 -76 196 -121t165 -76t170 -31q104 0 160.5 44.5t80.5 104.5q-70 -67 -174 -67q-55 0 -100.5 21t-72 62t-26.5 99q0 60 29 106.5t81 72.5t118 26q95 0 154 -53t59 -154q0 -112 -74.5 -219t-211.5 -174.5 t-316 -67.5q-134 0 -242.5 38t-188.5 92t-176 136q-152 -49 -260 -49q-99 0 -156 42.5t-57 131.5zM-23 -18q0 -52 47 -83.5t132 -31.5q81 0 214 42q-90 75 -154.5 112.5t-135.5 37.5q-51 0 -77 -20t-26 -57z" />
<glyph unicode="R" horiz-adv-x="1520" d="M-98 0l8 41q74 3 110.5 16t58.5 48t42 112l268 1016q18 72 18 96q0 39 -30 57t-107 23l11 41q119 -6 348 -6q81 0 168.5 2t144.5 2q189 0 308 -28t177 -90t58 -165q0 -124 -79.5 -220t-225.5 -155t-343 -76q135 -9 227.5 -31t148 -71.5t55.5 -135.5q0 -25 -4 -48 l-35 -213q-5 -30 -5 -48q0 -79 66 -79q42 0 72.5 32.5t54.5 98.5l10 29h48l-9 -27q-40 -130 -125.5 -190t-232.5 -60q-148 0 -221.5 56t-73.5 159q0 28 4 52l39 233q6 36 6 69q0 74 -44.5 114t-153.5 45l-127 -482q-20 -76 -20 -100q0 -38 30 -55t108 -21l-8 -41 q-141 6 -364 6q-258 0 -381 -6zM674 735q98 5 189.5 58.5t150.5 158.5t59 256q0 201 -143 201q-43 0 -66.5 -22.5t-40.5 -83.5z" />
<glyph unicode="S" horiz-adv-x="1247" d="M-72 -14q68 162 140 491h41q-19 -53 -19 -141q0 -157 87 -237.5t247 -80.5q133 0 186.5 50t53.5 139q0 116 -52.5 211t-206 288t-153.5 357q0 135 82.5 229t207 140.5t249.5 46.5q87 0 156.5 -16t103.5 -31t102 -48q11 -5 34.5 -16.5t33.5 -11.5q16 0 31.5 25.5 t35.5 82.5h41q-78 -190 -121 -417h-41q13 55 13 112q0 124 -78.5 194t-216.5 70q-97 0 -159 -48t-62 -150q0 -135 150 -309t228 -282t78 -249q0 -139 -95 -232.5t-233 -137.5t-268 -44q-104 0 -170.5 10t-114 29t-112.5 56q-54 30 -70 30q-19 0 -31.5 -9t-24.5 -31.5 t-32 -69.5h-41z" />
<glyph unicode="T" horiz-adv-x="1423" d="M160 1161q0 65 34.5 126.5t114.5 101.5q101 49 275 49q90 0 182 -5t272.5 -18.5t274.5 -13.5q105 0 184 15q-36 33 -59 83t-23 111q0 62 26 108t72 71.5t105 25.5t105 -25t71 -65.5t25 -86.5q0 -150 -172 -223q-135 -55 -355 -55l-59 1l-297 -1123q-15 -54 -15 -89 q0 -54 38.5 -78t130.5 -30l-9 -41q-144 6 -428 6q-272 0 -401 -6l8 41q88 3 136.5 21t76 58t47.5 118l307 1152q-149 11 -233 11q-161 0 -234 -35q81 -11 132 -63.5t51 -135.5q0 -58 -26.5 -104.5t-72 -73t-100.5 -26.5q-57 0 -99 27t-63.5 72.5t-21.5 98.5z" />
<glyph unicode="U" horiz-adv-x="1438" d="M144 349q0 98 38 241l170 643q17 65 17 98q0 31 -13.5 47t-42.5 22.5t-82 8.5l13 41q120 -6 387 -6q214 0 358 6l-12 -41q-75 -3 -111.5 -16t-58 -48t-41.5 -112l-180 -678q-51 -191 -51 -309q0 -203 145 -203q215 0 338.5 139.5t189.5 390.5l125 476q45 170 45 232 q0 41 -15.5 66t-49.5 39t-94 23l12 41q80 -6 227 -6q108 0 172 6l-12 -41q-67 -14 -105 -44t-65 -91.5t-59 -183.5l-127 -494q-75 -285 -201 -434q-75 -88 -185 -139.5t-235 -51.5q-179 0 -292.5 52.5t-162.5 142.5q-42 78 -42 183z" />
<glyph unicode="V" horiz-adv-x="1393" d="M184 1409l11 41q116 -6 344 -6q236 0 356 6l-10 -41q-62 -3 -97 -13.5t-52 -37.5t-17 -78q0 -27 2 -43l93 -856l521 801q46 70 46 119q0 95 -185 108l10 41q58 -6 291 -6q90 0 154 6l-11 -41q-53 -16 -92 -40t-81 -71.5t-97 -132.5l-764 -1175q-37 3 -76 3q-38 0 -77 -3 l-162 1288q-8 66 -39.5 97.5t-67.5 33.5z" />
<glyph unicode="W" horiz-adv-x="2120" d="M176 1409l10 41q117 -6 344 -6q194 0 295 6l-10 -41q-39 -3 -60.5 -14t-32 -38t-10.5 -78q0 -27 1 -42l90 -831l338 547l-41 325q-7 66 -32.5 97.5t-53.5 33.5l10 41q111 -6 324 -6q236 0 356 6l-10 -41q-62 -3 -97 -13.5t-52 -37.5t-17 -78q0 -27 2 -43l88 -810l432 755 q42 74 42 122q0 51 -46 75t-135 30l10 41q59 -6 291 -6q89 0 153 6l-10 -41q-57 -17 -96.5 -39t-82 -70t-91.5 -135l-670 -1175h-153l-113 902l-551 -902h-154l-161 1288q-9 67 -40 98t-67 33z" />
<glyph unicode="X" horiz-adv-x="1575" d="M-92 209q0 71 29.5 124.5t80.5 83t113 29.5q77 0 122.5 -45.5t45.5 -126.5q0 -60 -27 -112.5t-75.5 -88.5t-110.5 -50q15 -17 53 -17q58 0 140 51q76 55 175.5 181t192.5 300l-88 707q-6 44 -25.5 63t-56.5 19q-83 0 -125 -121l-35 -104h-41l54 158q43 116 126.5 167.5 t207.5 51.5q107 0 174 -34t103.5 -104t49.5 -182l26 -213q68 146 148.5 269.5t151.5 189.5q92 74 186 74q66 0 116 -31.5t77.5 -85.5t27.5 -121q0 -71 -29.5 -124.5t-80.5 -83t-113 -29.5q-77 0 -122.5 45.5t-45.5 126.5q0 60 27 112.5t75.5 88.5t110.5 50q-15 17 -53 17 q-63 0 -135 -51q-70 -59 -159 -193t-174 -323l81 -662q12 -78 86 -78q84 0 121 107l35 104h41l-54 -158q-43 -117 -118 -168t-189 -51q-120 0 -192 36.5t-108 105.5t-50 178l-23 183q-73 -135 -161.5 -251.5t-171.5 -183.5q-94 -68 -193 -68q-66 0 -116 31.5t-77.5 85.5 t-27.5 121z" />
<glyph unicode="Y" horiz-adv-x="1589" d="M150 1102l43 131q43 132 134.5 189t211.5 57q152 0 234 -80t120.5 -227.5t69.5 -415.5q128 395 303 600q105 123 243 123q71 0 125.5 -29t84.5 -79t30 -111q0 -64 -30.5 -113.5t-82.5 -76t-116 -26.5q-84 0 -133.5 40.5t-49.5 111.5q0 60 28 109t76.5 80.5t108.5 41.5 q-15 17 -51 17q-33 0 -63.5 -11t-67.5 -38q-53 -39 -126.5 -146t-148.5 -272.5t-130 -367.5l-99 -392q-11 -46 -11 -73q0 -41 19 -62.5t55.5 -29.5t98.5 -11l-10 -41q-129 6 -418 6q-251 0 -371 -6l11 41q74 3 111 16t59 48.5t41 111.5l105 419q-18 167 -50 318.5t-78.5 250 t-103.5 98.5q-36 0 -57 -27t-36 -70l-34 -104h-45z" />
<glyph unicode="Z" horiz-adv-x="1356" d="M-61 17q0 28 38 62.5t115 63.5l576 566h-332l14 41h359l539 529q-214 -202 -425 -202q-82 0 -144.5 12.5t-145.5 37t-125 24.5q-60 0 -60 -47q0 -67 150 -96l-11 -39q-127 19 -213 77t-86 160q0 79 40.5 141t115 97t174.5 35q87 0 153.5 -20t200 -79t258.5 -59 q70 0 160 31q37 54 78 86.5t73 32.5q16 0 29 -11q12 -11 12 -27q0 -29 -38 -63t-115 -63l-567 -557h311l-16 -41h-336l-553 -543q218 207 432 207q82 0 144.5 -12.5t146 -37t125.5 -24.5q59 0 59 47q0 67 -149 96l8 39q127 -19 213 -77t86 -160q0 -79 -40.5 -141t-115 -97 t-174.5 -35q-86 0 -153 20t-200.5 79t-258.5 59q-70 0 -160 -31q-36 -53 -78 -86t-73 -33q-16 0 -29 11q-12 10 -12 27z" />
<glyph unicode="[" horiz-adv-x="827" d="M-43 -371l485 1952h553l-8 -39h-166l-469 -1874h166l-8 -39h-553z" />
<glyph unicode="\" horiz-adv-x="1004" d="M268 1479h64l467 -1508h-68z" />
<glyph unicode="]" horiz-adv-x="829" d="M-166 -371l8 39h166l469 1874h-166l8 39h553l-485 -1952h-553z" />
<glyph unicode="^" horiz-adv-x="1071" d="M115 647q159 69 300 186.5t228 247.5h37q21 -134 99 -249t208 -183l-12 -31q-236 28 -463 123q-149 -73 -389 -123z" />
<glyph unicode="_" horiz-adv-x="1366" d="M-119 -371l86 227h1055l-86 -227h-1055z" />
<glyph unicode="`" horiz-adv-x="457" d="M84 1622q0 33 14.5 61t42.5 46q31 20 70 20t74 -19t53 -49q21 -32 30 -66.5t24 -143.5t54 -230l-24 -14q-55 62 -100.5 105t-117 105t-98.5 107q-22 38 -22 78z" />
<glyph unicode="a" d="M-14 227q0 193 103 395.5t258 336t296 133.5q116 0 128 -118l26 87q203 3 370 31l-276 -918q-9 -27 -9 -50q0 -36 33 -36q61 0 109 129l43 115h39l-51 -150q-74 -211 -293 -211q-126 0 -178 72q-34 48 -34 126q0 23 1 36q-49 -127 -127 -180.5t-184 -53.5 q-127 0 -190.5 65.5t-63.5 190.5zM371 219q0 -60 10 -84t37 -24q40 0 81 57.5t91 205.5l160 530q2 20 2 30q0 57 -39 57q-58 0 -140.5 -118.5t-142 -298.5t-59.5 -355z" />
<glyph unicode="b" horiz-adv-x="1178" d="M-66 -18q23 43 46 120l376 1264q10 37 10 57q0 41 -32 59.5t-107 18.5l15 43q162 1 292.5 22t256.5 62l-220 -742q60 107 127 156.5t152 49.5q140 0 210 -86t70 -248q0 -169 -81 -353.5t-232 -309t-348 -124.5q-97 0 -161 44q-42 11 -82 11q-102 0 -261 -59zM323 48 q27 -9 54 -9q88 0 175 128t142.5 317t55.5 354q0 67 -12 91.5t-38 24.5q-38 0 -81 -51t-84 -139z" />
<glyph unicode="c" horiz-adv-x="991" d="M4 295q0 182 94.5 368t266.5 307.5t391 121.5q82 0 142.5 -29t92 -77.5t31.5 -106.5q0 -65 -33 -127.5t-88.5 -102t-118.5 -39.5q-37 0 -68.5 16.5t-51 49t-19.5 78.5q0 64 29 120t76.5 95.5t103.5 56.5q-28 25 -70 25q-99 0 -190.5 -109.5t-148 -282.5t-56.5 -352 q0 -106 43.5 -157.5t120.5 -51.5q65 0 125 37t121 127l41 -16q-177 -275 -469 -275q-107 0 -189.5 35.5t-129 108t-46.5 180.5z" />
<glyph unicode="d" horiz-adv-x="1235" d="M-2 270q0 162 83.5 356t241.5 330t369 136q99 0 125 -51l86 325q10 37 10 57q0 41 -32 59.5t-107 18.5l14 43q308 3 555 84l-401 -1454q-10 -29 -10 -48q0 -38 35 -38q60 0 108 129l43 115h39l-51 -150q-72 -211 -293 -211q-130 0 -184 78q-30 44 -30 115q0 43 10 91 q-65 -146 -145.5 -215t-201.5 -69q-74 0 -133.5 31.5t-95 98.5t-35.5 169zM381 215q0 -62 10.5 -89.5t38.5 -27.5q29 0 70 44.5t88.5 142.5t93.5 247l62 234l1 4v-1l59 225q-8 26 -22 38t-43 12q-63 0 -149 -121.5t-147.5 -313.5t-61.5 -394z" />
<glyph unicode="e" horiz-adv-x="1016" d="M-6 260q0 201 103.5 394t283 315.5t395.5 122.5q115 0 184.5 -46t69.5 -135q0 -117 -93 -215t-240 -167t-313 -107q-7 -55 -7 -105q0 -112 43 -155t127 -43q51 0 131.5 35t155.5 108l32 -16q-78 -117 -211 -196t-307 -79q-98 0 -178.5 33.5t-128 98.5t-47.5 157zM390 459 q106 59 188 139q186 184 186 403q0 52 -33 52q-57 0 -128 -88.5t-130 -227t-83 -278.5z" />
<glyph unicode="f" horiz-adv-x="727" d="M-119 -385l376 1397h-161l13 41h159q89 333 258 458q122 91 310 91q99 0 171.5 -28t111 -80t38.5 -122q0 -49 -28 -96.5t-78.5 -78t-114.5 -30.5q-76 0 -120 36.5t-44 103.5q0 79 48.5 144t133.5 97q-29 13 -53 13q-62 0 -100 -33q-58 -49 -99 -203l-73 -272h207l-13 -41 h-205l-366 -1368q-203 -3 -371 -29z" />
<glyph unicode="g" horiz-adv-x="997" d="M-219 -223q0 73 67.5 105.5t197 60.5t180.5 48l-81 25q-57 19 -94 55t-37 87q0 57 50.5 104.5t132.5 87.5t217 94q-153 3 -245.5 61.5t-92.5 174.5q0 100 70 194.5t199 155t298 60.5q48 0 91 -5q48 103 91 172t93 109q58 47 129 47q69 0 110 -36.5t41 -104.5 q0 -53 -25.5 -102.5t-70 -80t-96.5 -30.5q-56 0 -89.5 33t-33.5 84q0 41 25 84.5t73 82.5q-10 5 -17 5q-19 0 -34 -17q-33 -30 -78.5 -102t-78.5 -150q104 -20 163 -75.5t59 -147.5q0 -94 -60.5 -183t-172.5 -150.5t-259 -75.5q-169 -60 -169 -109q0 -16 17 -26.5t55 -24.5 l186 -70q233 -87 233 -240q0 -122 -102.5 -203.5t-250.5 -120t-284 -38.5q-127 0 -218.5 20t-140 56.5t-48.5 85.5zM145 -291q0 -32 17 -45.5t51 -13.5q72 0 149.5 23.5t129 66.5t51.5 98q0 27 -16 43.5t-37 24.5t-66 22l-167 53q-59 -80 -85.5 -151t-26.5 -121zM418 602 q0 -69 11.5 -95t39.5 -26q50 0 91 64.5t64.5 167.5t24.5 213q0 65 -10.5 96t-42.5 31q-45 0 -86.5 -64t-66.5 -168t-25 -219z" />
<glyph unicode="h" horiz-adv-x="1212" d="M-49 0l405 1366q10 37 10 57q0 41 -32 59.5t-107 18.5l15 43q162 1 292.5 22t256.5 62l-265 -904q67 145 132 225t132 111.5t152 31.5q201 0 201 -170q0 -59 -27 -140l-203 -608q-10 -30 -10 -48q0 -38 35 -38q61 0 109 129l43 115h38l-51 -150q-72 -211 -293 -211 q-111 0 -163 52t-52 143q0 73 29 158l176 530q18 52 18 80q0 31 -22 31q-46 0 -114.5 -106t-143.5 -280t-138 -370l-57 -195l-2 -8v2l-2 -8h-362z" />
<glyph unicode="i" horiz-adv-x="688" d="M42 165q0 68 30 159l188 565q11 29 11 51q0 35 -29 35q-32 0 -59 -29t-54 -100l-47 -125h-39l57 160q77 211 306 211q110 0 161.5 -53t51.5 -136q0 -49 -17 -98l-213 -631q-10 -30 -10 -50q0 -36 35 -36q60 0 108 129l43 115h39l-51 -150q-72 -211 -293 -211 q-104 0 -161 49t-57 145zM346 1384q0 107 69 162.5t181 55.5q89 0 135.5 -35.5t46.5 -104.5q0 -63 -33 -111.5t-90.5 -75t-128.5 -26.5q-88 0 -134 34.5t-46 100.5z" />
<glyph unicode="j" horiz-adv-x="651" d="M-479 -238q0 47 24 85t65.5 59.5t90.5 21.5q46 0 81.5 -19.5t55 -51t19.5 -66.5q0 -40 -24 -80t-69 -65q79 9 125 58t78 163l287 1022q9 35 9 53q0 33 -30 33q-61 0 -110 -129l-47 -125h-39l57 160q41 110 124.5 160.5t184.5 50.5q108 0 155 -50.5t47 -132.5 q0 -47 -15 -104l-156 -569q-38 -140 -73.5 -229t-76.5 -148.5t-98 -106.5q-165 -137 -405 -137q-260 0 -260 147zM338 1384q0 107 68.5 162.5t181.5 55.5q89 0 135.5 -35.5t46.5 -104.5q0 -63 -33.5 -111.5t-91 -75t-127.5 -26.5q-89 0 -134.5 34.5t-45.5 100.5z" />
<glyph unicode="k" horiz-adv-x="1182" d="M-49 0l405 1366q10 37 10 57q0 41 -32 59.5t-107 18.5l15 43q162 1 292.5 22t256.5 62l-297 -1012q91 21 133.5 83t84 184t87.5 161q29 24 64.5 36t66.5 12q76 0 129 -31.5t79.5 -85t26.5 -117.5q0 -65 -27.5 -111.5t-74.5 -71t-105 -24.5q-77 0 -121 40.5t-44 101.5 q0 78 52 138.5t130 94.5q-7 12 -22 19.5t-29 7.5q-54 0 -95 -33q-39 -33 -79 -147.5t-80 -182.5t-128 -92q375 -2 375 -232q0 -38 -8 -73l-24 -119q-6 -29 -6 -47q0 -39 30 -39q61 0 109 129l43 115h39l-51 -150q-79 -211 -328 -211q-198 0 -198 181q0 39 9 84l35 145 q15 51 15 87q0 45 -24 71t-76 38l-169 -577h-362z" />
<glyph unicode="l" horiz-adv-x="647" d="M7 179q0 63 24 145l313 1042q10 37 10 57q0 41 -32 59.5t-107 18.5l14 43q163 1 293 22t256 62l-432 -1454q-6 -22 -6 -38q0 -25 11.5 -36.5t27.5 -11.5q20 0 47.5 25.5t56.5 103.5l43 115h39l-51 -150q-41 -119 -121 -165t-170 -46q-102 0 -159 53t-57 155z" />
<glyph unicode="m" horiz-adv-x="1817" d="M6 0l250 889q9 33 9 51q0 35 -32 35q-59 0 -108 -129l-47 -125h-39l57 160q40 109 117.5 160t177.5 51q106 0 153 -51.5t47 -135.5q0 -46 -13 -100l-23 -90q58 134 122.5 217t142 121.5t175.5 38.5q180 0 180 -163q0 -63 -24 -147l-11 -37q62 133 129 209.5t138 107 t156 30.5q184 0 184 -161q0 -64 -29 -149l-202 -608q-10 -30 -10 -49q0 -37 34 -37q61 0 109 129l43 115h39l-52 -150q-72 -211 -293 -211q-137 0 -190 86q-27 46 -27 108q0 69 31 159l176 530q15 44 15 66q0 24 -17 24q-40 0 -95 -61.5t-125 -208t-144 -384.5l-84 -290 h-365l246 854q16 55 16 70q0 20 -20 20q-73 0 -163.5 -165t-188.5 -462l-82 -317h-363z" />
<glyph unicode="n" horiz-adv-x="1268" d="M6 0l250 889q12 45 12 59q0 27 -30 27q-32 0 -59 -29t-54 -100l-47 -125h-39l57 160q38 108 107 159.5t174 51.5q115 0 165.5 -54t50.5 -139q0 -44 -13 -94l-56 -213q80 200 153.5 308.5t148.5 150t171 41.5q201 0 201 -170q0 -59 -27 -140l-202 -608q-10 -30 -10 -49 q0 -37 34 -37q61 0 109 129l43 115h39l-51 -150q-74 -211 -293 -211q-132 0 -185 74q-34 46 -34 115q0 65 32 164l176 530q18 52 18 80q0 31 -22 31q-53 0 -137.5 -143.5t-171 -367t-145.5 -448.5l1 4l-3 -10h-363z" />
<glyph unicode="o" horiz-adv-x="1141" d="M12 319q0 174 80 353t241 299.5t392 120.5q178 0 271.5 -90t93.5 -259q0 -173 -80 -352t-241.5 -299.5t-391.5 -120.5q-178 0 -271.5 90t-93.5 258zM352 127q0 -63 9.5 -89t29.5 -26q55 0 142 148t152 363.5t65 408.5q0 71 -9.5 95t-25.5 24q-58 0 -145.5 -154 t-152.5 -372t-65 -398z" />
<glyph unicode="p" horiz-adv-x="1239" d="M-215 -371l12 43q50 0 80 11.5t48 38.5t32 77l365 1317q-54 -125 -124 -225.5t-169 -208.5l-23 27q88 99 145 174t115.5 184.5t116.5 267.5q201 18 383 78l-156 -554q61 120 134 176.5t163 56.5q141 0 211 -86t70 -248q0 -169 -76 -353.5t-217.5 -309t-327.5 -124.5 q-115 0 -195 42l-42 -150q-16 -59 -16 -90q0 -58 40 -78.5t129 -22.5l-12 -43q-31 1 -140.5 5t-215.5 4q-97 0 -201 -4t-129 -5zM382 47q26 -8 52 -8q89 0 176 115.5t142 291.5t55 342q0 70 -6 106t-16.5 48t-26.5 12q-45 0 -96.5 -69.5t-96.5 -185.5z" />
<glyph unicode="q" horiz-adv-x="1190" d="M4 305q0 164 89 349.5t241.5 311.5t331.5 126q51 0 96.5 -14.5t74.5 -36.5q31 -8 72 -8q108 0 262 59l31 -15q-26 -54 -45 -121l-303 -1132q-9 -35 -9 -59q0 -45 32 -66.5t102 -26.5l-12 -43q-28 1 -136 5t-210 4q-103 0 -213 -4t-138 -5l13 43q66 2 107 19.5t64.5 50 t37.5 84.5l125 461q-72 -166 -150.5 -241t-181.5 -75q-141 0 -211 86t-70 248zM385 225q0 -56 11.5 -76t37.5 -20q43 0 91.5 60.5t93 163t73.5 222.5l-9 -46l132 485q-29 10 -57 10q-87 0 -174 -135t-143 -326t-56 -338z" />
<glyph unicode="r" horiz-adv-x="1022" d="M6 0l250 889q9 33 9 53q0 33 -27 33q-32 0 -59 -29t-54 -100l-47 -125h-39l57 160q77 211 305 211q101 0 145.5 -54.5t44.5 -140.5q0 -12 -2 -38q40 87 83.5 138t94 73t116.5 22q62 0 106.5 -26t68 -71.5t23.5 -101.5q0 -68 -30 -127t-82.5 -94t-118.5 -35 q-75 0 -114.5 39t-39.5 115q0 59 30.5 113t82 91.5t111.5 48.5q-21 7 -29 7q-66 0 -118.5 -26.5t-117.5 -130.5t-135 -319l-151 -575h-363z" />
<glyph unicode="s" horiz-adv-x="913" d="M-43 233q0 78 38 130.5t101 52.5q60 0 96.5 -49.5t36.5 -130.5q0 -40 -9.5 -78.5t-23 -72t-24.5 -56.5q31 -15 72 -15q64 0 105.5 42.5t41.5 113.5q0 64 -30.5 137.5t-88.5 167.5q-48 78 -69.5 117t-37 88t-15.5 102q0 89 45.5 159t137 110.5t224.5 40.5q151 0 251.5 -54 t100.5 -182q0 -44 -17 -86t-49.5 -69t-78.5 -27q-61 0 -96 47.5t-35 124.5q0 60 20 112.5t45 79.5q-18 9 -51 9q-72 0 -108.5 -42t-36.5 -122q0 -50 22 -99t53 -99.5t46 -76.5q68 -116 95 -188t27 -141q0 -86 -47 -156t-139.5 -111t-222.5 -41q-165 0 -272 61t-107 201z" />
<glyph unicode="t" horiz-adv-x="748" d="M60 193q0 60 20 131l198 688h-188l10 41h190l89 311q218 3 373 29l-100 -340h204l-6 -41h-210l-245 -838q-6 -22 -6 -39q0 -47 43 -47q40 0 81.5 44.5t66.5 111.5l32 88h39l-39 -113q-40 -118 -124 -183t-201 -65q-114 0 -170.5 60t-56.5 162z" />
<glyph unicode="u" horiz-adv-x="1264" d="M33 142q0 58 26 139l199 608q10 30 10 49q0 37 -35 37q-60 0 -108 -129l-43 -115h-39l51 150q74 211 293 211q103 0 159.5 -48.5t56.5 -144.5q0 -71 -30 -160l-176 -530q-17 -54 -17 -80q0 -31 21 -31q50 0 127 125t159 324.5t144 411.5l27 104q226 3 371 29l-258 -918 q-13 -42 -13 -59q0 -27 31 -27q32 0 59 29t54 100l47 125h39l-58 -160q-39 -109 -116 -160t-176 -51q-136 0 -183 80q-24 41 -24 99q0 49 16 108l46 176q-78 -187 -150 -287.5t-146.5 -138t-171.5 -37.5q-93 0 -142.5 43.5t-49.5 127.5z" />
<glyph unicode="v" horiz-adv-x="1063" d="M25 225q0 185 157 375.5t441 403.5q-62 -3 -104.5 -30.5t-108.5 -94t-119 -66.5q-15 0 -28 4t-38 15.5t-43 11.5q-25 0 -39.5 -18t-27.5 -60l-15 -43h-39l45 149q63 222 193 222q35 0 75 -19.5t70 -30t80 -10.5q72 0 133 31l21 39l43 -21q-88 -142 -158 -305.5 t-109.5 -311.5t-39.5 -247q0 -72 21 -105.5t73 -33.5q102 0 189.5 73.5t151.5 193.5t99 259q-105 48 -170 132t-65 186q0 78 41.5 123t117.5 45q156 0 156 -201q0 -205 -75.5 -418.5t-229 -357.5t-373.5 -144q-175 0 -250 72.5t-75 181.5z" />
<glyph unicode="w" horiz-adv-x="1384" d="M-10 233q0 118 85 230t204 209t431 332q-74 -2 -126.5 -31t-130 -94.5t-131.5 -65.5q-19 0 -33 4.5t-38 15.5t-42 11q-25 0 -39 -17.5t-29 -60.5l-14 -43h-39l45 149q35 119 85 164t112 45q36 0 83.5 -15t84.5 -23.5t96 -8.5q82 0 151 31l21 39l43 -21 q-125 -144 -222.5 -305.5t-152.5 -310.5t-55 -258q0 -64 21.5 -96.5t74.5 -32.5q52 0 100 27q-30 60 -30 145q0 122 57 234t139 180.5t152 68.5q84 0 84 -129q0 -216 -139 -390q50 -75 151 -75q82 0 140 67t89 177.5t35 241.5q-93 43 -158.5 84t-112 102.5t-46.5 144.5 q0 32 15 62.5t46.5 51t79.5 20.5q83 0 132 -72.5t68 -171t19 -189.5q0 -174 -54.5 -332t-159 -257t-246.5 -99q-75 0 -139 25t-103 80q-122 -105 -315 -105q-91 0 -156.5 34t-99 93.5t-33.5 134.5zM799 365q0 -63 19 -111q53 77 82.5 165.5t29.5 174.5q0 96 -33 96 q-24 0 -47 -47t-37 -122t-14 -156z" />
<glyph unicode="x" horiz-adv-x="1210" d="M-94 135q0 59 25.5 102.5t68 67t94.5 23.5q151 0 213 -199q65 88 117 223l-62 531q-7 48 -25 64t-48 16q-19 0 -35.5 -10.5t-36 -44t-41.5 -99.5l-26 -76h-39l51 150q39 122 121.5 165.5t191.5 43.5q80 0 133 -20.5t85 -72.5t42 -145l6 -53q45 98 95 166q91 125 237 125 q85 0 138 -46.5t53 -127.5q0 -53 -23.5 -94.5t-65.5 -65t-96 -23.5q-72 0 -131 47t-86 152q-62 -84 -112 -211l61 -543q9 -51 26 -72.5t44 -21.5q29 0 56 35.5t60 132.5l27 76h39l-51 -150q-39 -122 -120 -165.5t-183 -43.5q-116 0 -184.5 47.5t-80.5 161.5l-10 90 q-48 -105 -100 -174q-97 -125 -240 -125q-87 0 -137.5 44.5t-50.5 119.5z" />
<glyph unicode="y" horiz-adv-x="989" d="M-270 -250q0 41 20 75t57 54.5t87 20.5q147 0 251 -181q127 57 239 154l-167 1014q-10 53 -17.5 70.5t-25.5 17.5q-14 0 -24.5 -10t-23.5 -36.5t-34 -82.5l-43 -115h-39l51 150q41 118 105.5 164.5t159.5 46.5q103 0 162 -54t79 -190l90 -656q138 209 213 422 q-97 54 -155 135.5t-58 174.5q0 77 42 122.5t118 45.5q156 0 156 -199q0 -119 -54.5 -276t-147 -318t-202.5 -291q-129 -153 -269.5 -248.5t-279.5 -128.5q-69 -16 -120 -16q-82 0 -126 35.5t-44 99.5z" />
<glyph unicode="z" horiz-adv-x="975" d="M-125 0l1043 944q-74 -26 -179 -103.5t-162.5 -114t-111.5 -36.5q-35 0 -58 10t-56.5 33t-59.5 23q-25 0 -39 -15t-14 -36q0 -34 19.5 -54t70.5 -43l-13 -30q-227 50 -227 221q0 72 38 136.5t112.5 105t179.5 40.5q64 0 111.5 -15t138.5 -58t178 -43q63 0 105 21t83 75 h64l-1018 -924q60 22 148 86.5t138 95.5t99 31q36 0 59 -9.5t56.5 -32.5t62.5 -23q25 0 38 16.5t13 34.5q0 71 -90 96l12 31q119 -28 173.5 -83.5t54.5 -148.5q0 -74 -31 -133t-92.5 -93t-149.5 -34q-63 0 -111.5 16t-145.5 62.5t-189 46.5q-59 0 -102 -21t-84 -75h-64z" />
<glyph unicode="{" horiz-adv-x="815" d="M59 586l6 37h11q66 5 110.5 49.5t83.5 148.5t86 300q47 195 128 299t203.5 143t317.5 39l-10 -39q-72 -1 -110 -28.5t-73 -117t-87 -296.5q-46 -183 -121.5 -286t-188.5 -153.5t-294 -76.5q142 -28 223 -62.5t119 -90t38 -144.5q0 -83 -34 -219q-63 -253 -60 -332 q0 -41 12.5 -63t37.5 -30.5t67 -9.5l-10 -39q-236 -3 -338 44t-113 145t35 285q68 275 68 376q-1 62 -24.5 90t-72.5 31h-10z" />
<glyph unicode="|" horiz-adv-x="825" d="M309 -399v2156h246v-2156h-246z" />
<glyph unicode="}" horiz-adv-x="813" d="M-188 -385l10 39q72 1 110 28.5t73 117t87 296.5q46 183 121.5 286t188.5 153.5t294 76.5q-142 28 -223 62.5t-119 90t-38 144.5q0 83 34 219q63 253 60 332q0 41 -12.5 63t-37.5 30.5t-67 9.5l10 39q236 3 338 -44t113 -145t-35 -285q-68 -275 -68 -376q1 -62 24.5 -90 t72.5 -31h10l-6 -37h-11q-66 -5 -110.5 -49.5t-83.5 -148.5t-86 -300q-47 -195 -128 -299t-203.5 -143t-317.5 -39z" />
<glyph unicode="~" horiz-adv-x="1317" d="M74 455q43 116 113 202.5t159.5 133.5t188.5 47q70 0 125 -21t160.5 -80t195.5 -59q135 0 211 119l28 -11q-43 -116 -113 -202.5t-159 -133.5t-188 -47q-71 0 -126 21t-160.5 80t-195.5 59q-135 0 -211 -119z" />
<glyph unicode="&#xa1;" horiz-adv-x="672" d="M-98 -238q0 75 42 162t181.5 317.5t189.5 411.5l37 -6q-29 -111 -29 -250q0 -82 9 -186.5t14.5 -175.5t5.5 -144q0 -133 -70 -204.5t-204 -71.5q-81 0 -128.5 36t-47.5 111zM238 874q0 63 30 112.5t82 77.5t117 28q79 0 120.5 -35.5t41.5 -104.5q0 -54 -31 -103 t-84 -79.5t-116 -30.5q-79 0 -119.5 34.5t-40.5 100.5z" />
<glyph unicode="&#xa2;" horiz-adv-x="1038" d="M12 295q0 168 81 340.5t229 296.5t340 153l98 365h45l-97 -360q28 2 56 2q82 0 142.5 -29t92 -77.5t31.5 -106.5q0 -65 -33 -127.5t-88.5 -102t-118.5 -39.5q-37 0 -68.5 16.5t-51 49t-19.5 78.5q0 64 29 120t76.5 95.5t103.5 56.5q-28 25 -70 25q-50 0 -100 -30 l-239 -885q41 -38 108 -38q65 0 125 37t121 127l41 -16q-167 -260 -439 -274l-92 -343h-45l92 342q-159 4 -254.5 85.5t-95.5 238.5zM395 307q0 -76 24 -126l214 796q-67 -64 -121.5 -171t-85.5 -238t-31 -261z" />
<glyph unicode="&#xa3;" horiz-adv-x="1442" d="M-63 -8q0 26 21.5 56.5t67 56.5t113.5 36q43 84 77 169.5t69 217.5l21 80h-200l13 41h198l43 164h-198l12 41h197l12 45q72 277 256.5 442.5t484.5 165.5q77 0 136 -29t91.5 -79t32.5 -111q0 -76 -29 -134t-80 -90t-114 -32q-85 0 -133.5 42.5t-48.5 123.5q0 64 25.5 118 t71.5 90t106 48q-25 23 -67 23q-85 0 -139.5 -56t-88.5 -186l-100 -381h278l-12 -41h-277q-29 -92 -75 -164h309l-13 -41h-325q-63 -80 -180 -164.5t-185.5 -143.5t-126.5 -161q229 234 459 234q82 0 144.5 -12.5t146 -37t125.5 -24.5q59 0 59 47q0 67 -149 96l8 39 q127 -19 213 -77t86 -160q0 -79 -40.5 -141t-115 -97t-174.5 -35q-86 0 -153 20t-200.5 79t-258.5 59q-97 0 -164 -23q-33 -68 -88 -101.5t-115 -33.5q-14 0 -20 4.5t-6 16.5z" />
<glyph unicode="&#xa5;" horiz-adv-x="1690" d="M199 1102l43 131q43 132 134.5 189t211.5 57q152 0 234 -80t120.5 -227.5t69.5 -415.5q128 395 303 600q105 123 243 123q71 0 125.5 -29t84.5 -79t30 -111q0 -64 -30.5 -113.5t-82.5 -76t-116 -26.5q-84 0 -133.5 40.5t-49.5 111.5q0 60 28 109t76.5 80.5t108.5 41.5 q-15 17 -51 17q-33 0 -63.5 -11t-67.5 -38q-53 -39 -126.5 -146t-148.5 -272.5t-130 -367.5v-1h264l-10 -41h-265l-31 -123h261l-10 -41h-261l-47 -186q-11 -46 -11 -73q0 -41 19 -62.5t55.5 -29.5t98.5 -11l-10 -41q-129 6 -418 6q-251 0 -371 -6l11 41q74 3 111 16 t59 48.5t41 111.5l47 186h-287l10 41h287l31 123h-283l10 41h283l7 28q-29 269 -89 468t-143 199q-36 0 -57 -27t-36 -70l-34 -104h-45z" />
<glyph unicode="&#xa7;" horiz-adv-x="1272" d="M-25 -201q0 59 30.5 111.5t83 84.5t116.5 32q69 0 108 -33.5t39 -87.5q0 -73 -46 -132t-118 -91q10 -10 46 -19.5t79 -9.5q71 0 131 30t95.5 86t35.5 130q0 64 -36.5 109t-98 95.5t-88.5 73.5q-118 100 -167 146t-82 101.5t-33 121.5q0 139 93.5 236.5t247.5 170.5 q-49 55 -72.5 106t-23.5 107q0 141 97 239.5t244 147t294 48.5q128 0 239 -39.5t111 -147.5q0 -59 -31 -111t-84 -83t-116 -31q-71 0 -109 35.5t-38 93.5q0 66 47.5 125t115.5 90q-9 9 -45 19t-79 10q-71 0 -131 -30.5t-96 -86.5t-36 -129q0 -65 36 -109.5t98 -95.5t90 -74 q117 -98 166.5 -144.5t82.5 -102t33 -121.5q0 -139 -93.5 -236.5t-247.5 -170.5q95 -107 95 -214q0 -141 -97 -239.5t-243.5 -146.5t-293.5 -48q-132 0 -240.5 37.5t-108.5 146.5zM393 756q0 -43 25 -85t83.5 -96.5t164.5 -136.5q98 -77 155 -132q37 42 53 112q7 25 7 50 q0 42 -26 83.5t-83 93t-164 133.5q-98 77 -154 131q-61 -72 -61 -153z" />
<glyph unicode="&#xa8;" horiz-adv-x="799" d="M-23 1380q0 68 28 113t74 66.5t101 21.5q79 0 116.5 -42.5t37.5 -117.5q0 -67 -29 -111t-76 -64.5t-100 -20.5q-78 0 -115 41t-37 114zM465 1380q0 100 58.5 150.5t144.5 50.5q78 0 115.5 -42.5t37.5 -117.5q0 -67 -29 -111t-75.5 -64.5t-100.5 -20.5q-78 0 -114.5 41 t-36.5 114z" />
<glyph unicode="&#xa9;" horiz-adv-x="1847" d="M158 786q0 222 109.5 409.5t296.5 297t409 109.5q221 0 408.5 -109.5t297 -297t109.5 -409.5q0 -221 -109.5 -408.5t-297 -297t-408.5 -109.5q-222 0 -409 109.5t-296.5 297t-109.5 408.5zM240 786q0 -203 98.5 -375t266.5 -273t368 -101q199 0 367.5 101t267 273 t98.5 375q0 204 -98.5 376t-267 273t-367.5 101q-200 0 -368 -101t-266.5 -273t-98.5 -376zM500 786q0 190 68 316t186 186t272 60q97 0 186.5 -28.5t148 -90t58.5 -156.5q0 -55 -25.5 -100.5t-70 -72t-100.5 -26.5q-89 0 -139 51t-50 134q0 74 48.5 129.5t119.5 75.5 q-19 13 -51 21.5t-66 8.5q-72 0 -115.5 -41t-65 -145t-21.5 -293q0 -159 37 -254t94 -133.5t125 -38.5q148 0 247 199l35 -13q-28 -90 -83.5 -169t-142.5 -129t-202 -50q-223 0 -358 133.5t-135 425.5z" />
<glyph unicode="&#xaa;" horiz-adv-x="1196" d="M207 944q0 127 80 252t207.5 204t259.5 79q40 0 64.5 -14t28.5 -57l15 52q199 0 348 19l-168 -531q-9 -32 -9 -47q0 -37 38 -37q55 0 78 64l18 51h39l-20 -57q-67 -185 -279 -185q-190 0 -190 161q0 17 1 26q-55 -105 -127 -146t-161 -41q-223 0 -223 207zM561 973 q0 -111 45 -111q30 0 65 45t67 120l93 325q-1 40 -15 59t-34 19q-42 0 -94.5 -70t-89.5 -177t-37 -210z" />
<glyph unicode="&#xab;" horiz-adv-x="1294" d="M31 510l10 41q188 110 363 239.5t382 301.5h37q-40 -86 -108.5 -198t-143.5 -211.5t-131 -152.5q32 -52 61 -152t46 -211t16 -196h-37q-119 164 -237 295.5t-258 243.5zM553 510l10 41q162 92 311.5 201t333.5 258h37q-43 -108 -138 -258t-163 -222q22 -45 42.5 -130.5 t31.5 -180t8 -166.5h-37q-118 150 -217.5 257.5t-218.5 199.5z" />
<glyph unicode="&#xac;" horiz-adv-x="1303" d="M164 696l18 62h1026l-121 -420h-73l102 358h-952z" />
<glyph unicode="&#xad;" horiz-adv-x="1038" d="M109 455l55 202h739l-55 -202h-739z" />
<glyph unicode="&#xae;" horiz-adv-x="1384" d="M236 1030q0 155 77 286.5t208 208.5t286 77t286 -77t208 -208.5t77 -286.5t-77 -286t-208 -208t-286 -77t-286 77t-208 208t-77 286zM322 1030q0 -136 65 -252.5t176.5 -185t243.5 -68.5t243.5 68.5t176.5 185t65 252.5q0 137 -65 253t-176 184.5t-244 68.5t-244 -68.5 t-176 -184.5t-65 -253zM512 721v31q21 2 30.5 7.5t13 20.5t3.5 47v449q0 33 -3.5 48.5t-13 21.5t-30.5 8v30q33 -2 147 -2q68 0 112 1t65 1q138 0 198 -40.5t60 -120.5q0 -51 -50 -97.5t-168 -65.5q69 -6 109 -20t58.5 -37.5t25.5 -62.5l35 -145q5 -35 26 -35q12 0 23 8 l12 -23q-41 -34 -118 -34q-145 0 -160 92l-27 147q-6 33 -14 50t-26 27t-54 14v-214q0 -32 3.5 -47t13 -20.5t30.5 -7.5v-31q-29 0 -65.5 1t-79.5 1q-52 0 -91.5 -1t-64.5 -1zM766 1077h8q56 0 86.5 36t30.5 104q0 66 -22.5 101.5t-65.5 35.5q-21 0 -29 -11t-8 -40v-226z " />
<glyph unicode="&#xb0;" horiz-adv-x="680" d="M287 1434q0 73 34 129t90.5 86t123.5 30t124 -30t91 -86t34 -129q0 -75 -34 -131t-91 -86.5t-124 -30.5t-123.5 30.5t-90.5 86.5t-34 131zM336 1434q0 -65 29.5 -112t75 -71t94.5 -24q48 0 94.5 24t76 71t29.5 112q0 63 -30 109.5t-76 70.5t-94 24t-94 -24t-75.5 -70.5 t-29.5 -109.5z" />
<glyph unicode="&#xb1;" horiz-adv-x="1241" d="M-67 0l18 62h1026l-18 -62h-1026zM141 696l19 62h477l137 483h74l-137 -483h475l-19 -62h-475l-137 -481h-74l137 481h-477z" />
<glyph unicode="&#xb4;" horiz-adv-x="457" d="M260 1247q60 95 113 202.5t80.5 156.5t68.5 90q26 26 61 42t70 16q55 0 95 -40q34 -34 34 -77q0 -61 -67 -130q-32 -32 -74 -59t-154.5 -91.5t-205.5 -129.5z" />
<glyph unicode="&#xb6;" horiz-adv-x="1544" d="M86 469q0 268 128.5 493.5t349.5 357.5t487 132q80 0 214 -3t195 -3q168 0 246 4l-10 -39q-65 -3 -103 -18.5t-58.5 -44t-33.5 -76.5l-297 -1139q-65 -247 -226 -382.5t-464 -135.5q-153 0 -245.5 43t-92.5 139q0 80 56 129t157 49q91 0 149 -38.5t58 -110.5 q0 -116 -133 -172q20 -4 47 -4q56 0 93.5 32.5t67.5 100.5t66 190q-339 0 -495 131t-156 365zM303 719q-1 -8 73.5 -19.5t198 -20.5t263.5 -9q-35 -166 -51.5 -311t-16.5 -222q0 -39 4 -39q52 193 191.5 716.5t142.5 528.5q-8 0 -49.5 -83.5t-95.5 -215t-99 -274.5 q-139 0 -267 -10t-210.5 -22.5t-83.5 -18.5z" />
<glyph unicode="&#xb7;" horiz-adv-x="635" d="M111 518q0 63 30 112.5t82 77.5t117 28q79 0 120.5 -35.5t41.5 -104.5q0 -54 -31 -103t-84 -79.5t-116 -30.5q-79 0 -119.5 34.5t-40.5 100.5z" />
<glyph unicode="&#xb8;" horiz-adv-x="467" d="M-154 -348l13 33q60 -21 125 -21q59 0 113.5 18t54.5 68q0 22 -16 34.5t-42 12.5q-35 0 -63 -14l172 217h59l-102 -137q74 24 127 24q65 0 106 -22t41 -66q0 -64 -56 -105t-145 -60t-190 -19q-110 0 -197 37z" />
<glyph unicode="&#xba;" horiz-adv-x="1116" d="M213 1014q0 95 68.5 204.5t199.5 185t310 75.5q177 0 277.5 -69.5t100.5 -207.5q0 -95 -68 -204t-199 -184t-310 -75q-178 0 -278.5 69t-100.5 206zM545 895q0 -119 57 -119q53 0 108.5 85t91.5 213.5t36 248.5q0 119 -58 119q-52 0 -107.5 -85.5t-91.5 -214t-36 -247.5z " />
<glyph unicode="&#xbb;" horiz-adv-x="1292" d="M12 53q44 108 137.5 257t159.5 220q-21 46 -41 132t-31 181.5t-8 166.5h37q120 -153 218.5 -260.5t217.5 -198.5l-10 -41q-163 -93 -315 -203t-328 -254h-37zM432 -29q40 85 108.5 196.5t142.5 211t130 151.5q-31 53 -59.5 153.5t-45.5 212.5t-16 196h37 q121 -167 239 -298.5t259 -242.5l-10 -41q-191 -110 -366 -238.5t-382 -300.5h-37z" />
<glyph unicode="&#xbf;" horiz-adv-x="1057" d="M-94 -137q0 59 33 108t93 96t181 128q98 66 150 107.5t80 85.5t28 97q0 117 -131 117q-67 0 -117 -20q33 -2 63.5 -19.5t50 -48t19.5 -68.5q0 -40 -22.5 -72t-61.5 -50.5t-88 -18.5q-64 0 -103.5 33t-39.5 94q0 80 66 128.5t161.5 68.5t192.5 20q114 0 206 -26t145.5 -76 t53.5 -119q0 -61 -41 -117t-99.5 -101.5t-150.5 -107.5q-108 -72 -162 -114t-83 -85t-29 -96q0 -70 46.5 -105.5t121.5 -35.5q80 0 129 19q-71 8 -119.5 52t-48.5 107q0 45 25.5 82t68 57.5t92.5 20.5q70 0 120 -40t50 -116q0 -87 -67.5 -139t-167.5 -73t-209 -21 q-132 0 -230.5 29.5t-152 85.5t-53.5 133zM440 874q0 63 30 112.5t82 77.5t117 28q79 0 120.5 -35.5t41.5 -104.5q0 -54 -31 -103t-84 -79.5t-116 -30.5q-79 0 -119.5 34.5t-40.5 100.5z" />
<glyph unicode="&#xc0;" horiz-adv-x="1370" d="M-197 0l9 41q40 11 74 36.5t73.5 73t101.5 134.5l836 1175q33 -4 79 -4t75 4l82 -1288q5 -67 34 -98t66 -33l-8 -41q-120 6 -346 6q-238 0 -349 -6l9 41q66 3 103 15.5t55.5 43t18.5 87.5q0 17 -1 26l-18 336h-402l-199 -281q-48 -70 -48 -117q0 -96 188 -110l-9 -41 q-211 6 -290 6q-70 0 -134 -6zM324 590h371l-25 489zM575 1808q0 28 13 54q18 37 53.5 56.5t75.5 19.5q35 0 64 -15q35 -16 60.5 -40.5t95.5 -109t167 -167.5l-14 -25q-79 24 -140 37t-154.5 28t-139.5 40q-37 19 -59 51.5t-22 70.5z" />
<glyph unicode="&#xc1;" horiz-adv-x="1370" d="M-197 0l9 41q40 11 74 36.5t73.5 73t101.5 134.5l836 1175q33 -4 79 -4t75 4l82 -1288q5 -67 34 -98t66 -33l-8 -41q-120 6 -346 6q-238 0 -349 -6l9 41q66 3 103 15.5t55.5 43t18.5 87.5q0 17 -1 26l-18 336h-402l-199 -281q-48 -70 -48 -117q0 -96 188 -110l-9 -41 q-211 6 -290 6q-70 0 -134 -6zM324 590h371l-25 489zM842 1606q84 74 166 162t122.5 127t92.5 67q43 24 94 24q88 0 127 -71q15 -29 15 -55q0 -75 -107 -136q-39 -21 -87 -35t-174 -43.5t-235 -64.5z" />
<glyph unicode="&#xc2;" horiz-adv-x="1370" d="M-197 0l9 41q40 11 74 36.5t73.5 73t101.5 134.5l836 1175q33 -4 79 -4t75 4l82 -1288q5 -67 34 -98t66 -33l-8 -41q-120 6 -346 6q-238 0 -349 -6l9 41q66 3 103 15.5t55.5 43t18.5 87.5q0 17 -1 26l-18 336h-402l-199 -281q-48 -70 -48 -117q0 -96 188 -110l-9 -41 q-211 6 -290 6q-70 0 -134 -6zM324 590h371l-25 489zM504 1606q182 57 343.5 152t260.5 200h37q41 -126 104.5 -207t180.5 -145l-8 -29q-150 24 -251.5 49.5t-195.5 61.5q-200 -68 -460 -111z" />
<glyph unicode="&#xc3;" horiz-adv-x="1370" d="M-197 0l9 41q40 11 74 36.5t73.5 73t101.5 134.5l836 1175q33 -4 79 -4t75 4l82 -1288q5 -67 34 -98t66 -33l-8 -41q-120 6 -346 6q-238 0 -349 -6l9 41q66 3 103 15.5t55.5 43t18.5 87.5q0 17 -1 26l-18 336h-402l-199 -281q-48 -70 -48 -117q0 -96 188 -110l-9 -41 q-211 6 -290 6q-70 0 -134 -6zM324 590h371l-25 489zM527 1608q63 168 167.5 251t221.5 83q77 0 128 -21.5t131 -75t153 -53.5q48 0 88.5 28t79.5 91l37 -10q-62 -169 -167 -251.5t-222 -82.5q-77 0 -128.5 21t-131 74.5t-152.5 53.5q-49 0 -89 -28t-79 -91z" />
<glyph unicode="&#xc4;" horiz-adv-x="1370" d="M-197 0l9 41q40 11 74 36.5t73.5 73t101.5 134.5l836 1175q33 -4 79 -4t75 4l82 -1288q5 -67 34 -98t66 -33l-8 -41q-120 6 -346 6q-238 0 -349 -6l9 41q66 3 103 15.5t55.5 43t18.5 87.5q0 17 -1 26l-18 336h-402l-199 -281q-48 -70 -48 -117q0 -96 188 -110l-9 -41 q-211 6 -290 6q-70 0 -134 -6zM324 590h371l-25 489zM551 1716q0 68 28 113t74 66.5t101 21.5q78 0 116 -43t38 -117q0 -67 -29 -111t-76 -64.5t-100 -20.5q-78 0 -115 41t-37 114zM1080 1716q0 68 28 113t73.5 66.5t100.5 21.5q78 0 116 -43t38 -117q0 -67 -29 -111 t-75.5 -64.5t-100.5 -20.5q-78 0 -114.5 41t-36.5 114z" />
<glyph unicode="&#xc5;" horiz-adv-x="1370" d="M-197 0l9 41q40 11 74 36.5t73.5 73t101.5 134.5l836 1175q33 -4 79 -4t75 4l82 -1288q5 -67 34 -98t66 -33l-8 -41q-120 6 -346 6q-238 0 -349 -6l9 41q66 3 103 15.5t55.5 43t18.5 87.5q0 17 -1 26l-18 336h-402l-199 -281q-48 -70 -48 -117q0 -96 188 -110l-9 -41 q-211 6 -290 6q-70 0 -134 -6zM324 590h371l-25 489zM775 1704q0 64 35 117t95.5 83.5t133.5 30.5q61 0 110.5 -22.5t78 -64t28.5 -95.5q0 -63 -38 -116.5t-100.5 -85t-133.5 -31.5q-60 0 -107.5 22t-74.5 64t-27 98zM830 1704q0 -44 23 -76t61 -48.5t80 -16.5q53 0 101 25 t78 68t30 93q0 46 -25 78.5t-64 48.5t-81 16q-54 0 -101 -26.5t-74.5 -70t-27.5 -91.5z" />
<glyph unicode="&#xc6;" horiz-adv-x="1864" d="M-184 0v41q63 3 176 131l974 1179q-6 32 -36.5 43.5t-100.5 14.5l11 41l204 -4l113 137h53l-113 -137q177 -2 453 -2q295 0 424 6q-26 -71 -48.5 -146t-29.5 -96q-18 -61 -26 -127h-45q15 86 15 145q0 96 -42.5 136.5t-138.5 40.5h-88q-71 0 -106.5 -12t-57 -46.5 t-41.5 -111.5l-128 -483h118q58 0 96.5 30.5t62 76t52.5 122.5h45q-26 -79 -43.5 -148.5t-26.5 -101.5q-25 -92 -53 -250h-45q0 20 5 63t5 63q0 46 -22.5 73t-83.5 31h-121l-131 -492q-18 -70 -18 -100q0 -29 13.5 -44t41.5 -20.5t79 -5.5h109q99 0 162.5 34t109.5 111 t95 218h45q-17 -42 -43 -148q-32 -108 -54 -262q-139 6 -462 6q-476 0 -713 -6l8 41q74 3 110.5 16t58.5 48t42 112l131 492h-323l-427 -516q-58 -68 -58 -97q0 -45 126 -55v-41q-55 6 -176 6q-89 0 -137 -6zM521 750h301l128 483q7 29 12 50z" />
<glyph unicode="&#xc7;" horiz-adv-x="1450" d="M76 496q0 246 135.5 473t373.5 368.5t529 141.5q112 0 181 -35.5t122 -97.5q15 -18 30 -18q38 0 83 122h43q-68 -177 -131 -471h-45q20 118 20 177q0 90 -35 149q-38 65 -92 90.5t-133 25.5q-161 0 -301.5 -133.5t-224.5 -355.5t-84 -475q0 -207 70.5 -307.5 t197.5 -100.5q69 0 141.5 31.5t124.5 87.5q54 58 94 129t91 195h45q-97 -355 -121 -492h-45q6 44 6 70q0 52 -26 52q-16 0 -42 -18q-192 -133 -409 -133q-305 0 -451.5 136t-146.5 389zM340 -348l12 33q23 -6 74.5 -13.5t91.5 -7.5q168 0 168 86q0 47 -57 47q-32 0 -64 -14 l100 231h56l-58 -131q62 25 127 25q73 0 115.5 -27t42.5 -82q0 -64 -53 -105t-137.5 -60t-180.5 -19q-69 0 -132.5 11.5t-104.5 25.5z" />
<glyph unicode="&#xc8;" horiz-adv-x="1305" d="M-98 0l8 41q74 3 110.5 16t58.5 48t42 112l270 1016q17 65 17 98q0 31 -13.5 47t-42.5 22.5t-82 8.5l11 41q235 -6 710 -6q295 0 424 6q-50 -129 -78 -242q-11 -46 -26 -127h-45q1 119 -26.5 190t-82 101.5t-139.5 30.5h-6q-71 0 -106.5 -12t-57 -46.5t-41.5 -111.5 l-128 -483h36q64 0 123 31.5t103 84t67 113.5h45q-26 -79 -43.5 -148.5t-26.5 -101.5q-27 -102 -53 -250h-45q0 54 -19 106.5t-63.5 88t-116.5 35.5h-18l-131 -492q-18 -70 -18 -100q0 -29 13.5 -44t41.5 -20.5t79 -5.5h27q100 0 175.5 34.5t140.5 113t132 215.5h46 q-14 -36 -44 -148q-32 -117 -53 -262q-139 6 -463 6q-475 0 -712 -6zM485 1808q0 28 13 54q18 37 53.5 56.5t75.5 19.5q35 0 64 -15q35 -16 60.5 -40.5t95.5 -109t167 -167.5l-14 -25q-79 24 -140 37t-154.5 28t-139.5 40q-37 19 -59 51.5t-22 70.5z" />
<glyph unicode="&#xc9;" horiz-adv-x="1305" d="M-98 0l8 41q74 3 110.5 16t58.5 48t42 112l270 1016q17 65 17 98q0 31 -13.5 47t-42.5 22.5t-82 8.5l11 41q235 -6 710 -6q295 0 424 6q-50 -129 -78 -242q-11 -46 -26 -127h-45q1 119 -26.5 190t-82 101.5t-139.5 30.5h-6q-71 0 -106.5 -12t-57 -46.5t-41.5 -111.5 l-128 -483h36q64 0 123 31.5t103 84t67 113.5h45q-26 -79 -43.5 -148.5t-26.5 -101.5q-27 -102 -53 -250h-45q0 54 -19 106.5t-63.5 88t-116.5 35.5h-18l-131 -492q-18 -70 -18 -100q0 -29 13.5 -44t41.5 -20.5t79 -5.5h27q100 0 175.5 34.5t140.5 113t132 215.5h46 q-14 -36 -44 -148q-32 -117 -53 -262q-139 6 -463 6q-475 0 -712 -6zM752 1606q84 74 166 162t122.5 127t92.5 67q43 24 94 24q88 0 127 -71q15 -29 15 -55q0 -75 -107 -136q-39 -21 -87 -35t-174 -43.5t-235 -64.5z" />
<glyph unicode="&#xca;" horiz-adv-x="1305" d="M-98 0l8 41q74 3 110.5 16t58.5 48t42 112l270 1016q17 65 17 98q0 31 -13.5 47t-42.5 22.5t-82 8.5l11 41q235 -6 710 -6q295 0 424 6q-50 -129 -78 -242q-11 -46 -26 -127h-45q1 119 -26.5 190t-82 101.5t-139.5 30.5h-6q-71 0 -106.5 -12t-57 -46.5t-41.5 -111.5 l-128 -483h36q64 0 123 31.5t103 84t67 113.5h45q-26 -79 -43.5 -148.5t-26.5 -101.5q-27 -102 -53 -250h-45q0 54 -19 106.5t-63.5 88t-116.5 35.5h-18l-131 -492q-18 -70 -18 -100q0 -29 13.5 -44t41.5 -20.5t79 -5.5h27q100 0 175.5 34.5t140.5 113t132 215.5h46 q-14 -36 -44 -148q-32 -117 -53 -262q-139 6 -463 6q-475 0 -712 -6zM414 1606q182 57 343.5 152t260.5 200h37q41 -126 104.5 -207t180.5 -145l-8 -29q-150 24 -251.5 49.5t-195.5 61.5q-200 -68 -460 -111z" />
<glyph unicode="&#xcb;" horiz-adv-x="1305" d="M-98 0l8 41q74 3 110.5 16t58.5 48t42 112l270 1016q17 65 17 98q0 31 -13.5 47t-42.5 22.5t-82 8.5l11 41q235 -6 710 -6q295 0 424 6q-50 -129 -78 -242q-11 -46 -26 -127h-45q1 119 -26.5 190t-82 101.5t-139.5 30.5h-6q-71 0 -106.5 -12t-57 -46.5t-41.5 -111.5 l-128 -483h36q64 0 123 31.5t103 84t67 113.5h45q-26 -79 -43.5 -148.5t-26.5 -101.5q-27 -102 -53 -250h-45q0 54 -19 106.5t-63.5 88t-116.5 35.5h-18l-131 -492q-18 -70 -18 -100q0 -29 13.5 -44t41.5 -20.5t79 -5.5h27q100 0 175.5 34.5t140.5 113t132 215.5h46 q-14 -36 -44 -148q-32 -117 -53 -262q-139 6 -463 6q-475 0 -712 -6zM461 1716q0 68 28 113t74 66.5t101 21.5q78 0 116 -43t38 -117q0 -67 -29 -111t-76 -64.5t-100 -20.5q-78 0 -115 41t-37 114zM990 1716q0 68 28 113t73.5 66.5t100.5 21.5q78 0 116 -43t38 -117 q0 -67 -29 -111t-75.5 -64.5t-100.5 -20.5q-78 0 -114.5 41t-36.5 114z" />
<glyph unicode="&#xcc;" horiz-adv-x="864" d="M-96 0l10 41q71 3 107 16t58 48.5t42 111.5l270 1016q17 65 17 98q0 31 -13.5 47t-42.5 22.5t-82 8.5l11 41q113 -6 362 -6q232 0 385 6l-10 -41q-75 -3 -111.5 -16t-58 -48t-41.5 -112l-270 -1016q-18 -70 -18 -100t13.5 -45.5t42.5 -22t82 -8.5l-8 -41q-132 6 -383 6 q-242 0 -362 -6zM313 1808q0 28 13 54q18 37 53.5 56.5t75.5 19.5q35 0 64 -15q35 -16 60.5 -40.5t95.5 -109t167 -167.5l-14 -25q-79 24 -140 37t-154.5 28t-139.5 40q-37 19 -59 51.5t-22 70.5z" />
<glyph unicode="&#xcd;" horiz-adv-x="864" d="M-96 0l10 41q71 3 107 16t58 48.5t42 111.5l270 1016q17 65 17 98q0 31 -13.5 47t-42.5 22.5t-82 8.5l11 41q113 -6 362 -6q232 0 385 6l-10 -41q-75 -3 -111.5 -16t-58 -48t-41.5 -112l-270 -1016q-18 -70 -18 -100t13.5 -45.5t42.5 -22t82 -8.5l-8 -41q-132 6 -383 6 q-242 0 -362 -6zM580 1606q84 74 166 162t122.5 127t92.5 67q43 24 94 24q88 0 127 -71q15 -29 15 -55q0 -75 -107 -136q-39 -21 -87 -35t-174 -43.5t-235 -64.5z" />
<glyph unicode="&#xce;" horiz-adv-x="864" d="M-96 0l10 41q71 3 107 16t58 48.5t42 111.5l270 1016q17 65 17 98q0 31 -13.5 47t-42.5 22.5t-82 8.5l11 41q113 -6 362 -6q232 0 385 6l-10 -41q-75 -3 -111.5 -16t-58 -48t-41.5 -112l-270 -1016q-18 -70 -18 -100t13.5 -45.5t42.5 -22t82 -8.5l-8 -41q-132 6 -383 6 q-242 0 -362 -6zM242 1606q182 57 343.5 152t260.5 200h37q41 -126 104.5 -207t180.5 -145l-8 -29q-150 24 -251.5 49.5t-195.5 61.5q-200 -68 -460 -111z" />
<glyph unicode="&#xcf;" horiz-adv-x="864" d="M-96 0l10 41q71 3 107 16t58 48.5t42 111.5l270 1016q17 65 17 98q0 31 -13.5 47t-42.5 22.5t-82 8.5l11 41q113 -6 362 -6q232 0 385 6l-10 -41q-75 -3 -111.5 -16t-58 -48t-41.5 -112l-270 -1016q-18 -70 -18 -100t13.5 -45.5t42.5 -22t82 -8.5l-8 -41q-132 6 -383 6 q-242 0 -362 -6zM289 1716q0 68 28 113t74 66.5t101 21.5q78 0 116 -43t38 -117q0 -67 -29 -111t-76 -64.5t-100 -20.5q-78 0 -115 41t-37 114zM818 1716q0 68 28 113t73.5 66.5t100.5 21.5q78 0 116 -43t38 -117q0 -67 -29 -111t-75.5 -64.5t-100.5 -20.5q-78 0 -114.5 41 t-36.5 114z" />
<glyph unicode="&#xd0;" horiz-adv-x="1642" d="M-88 0l6 41q70 3 105.5 16t57.5 48.5t42 111.5l268 1016q13 49 13 80q0 44 -29.5 68t-102.5 28l7 41q163 -7 318 -7l75 1q171 6 303 6q307 0 476 -130t169 -384q0 -222 -106.5 -436.5t-339.5 -357t-590 -142.5q-43 0 -133 3t-191 3q-225 0 -348 -6zM112 706l13 52h884 l-12 -52h-885zM514 91q0 -30 19 -42t67 -12q180 0 316.5 149.5t209 376t72.5 447.5q0 403 -260 403q-46 0 -65.5 -12t-30 -40.5t-35.5 -123.5l-268 -1024q-25 -93 -25 -122z" />
<glyph unicode="&#xd1;" horiz-adv-x="1763" d="M-174 68q0 64 30.5 113t82.5 75.5t116 26.5q84 0 133.5 -40.5t49.5 -111.5q0 -60 -28 -109t-76.5 -80.5t-108.5 -41.5q15 -17 51 -17q103 0 176 115q77 120 158.5 430t177.5 801v4q12 57 12 91t-14.5 51.5t-47.5 24.5t-96 9l11 41q64 -6 182 -6q95 0 166 6l447 -870 q157 649 284 833q90 131 221 131q71 0 125.5 -29t84.5 -79t30 -111q0 -64 -30.5 -113t-83 -75.5t-116.5 -26.5q-84 0 -133 40t-49 112q0 60 27.5 109t76 80.5t109.5 41.5q-16 16 -51 16q-50 0 -94.5 -30.5t-79.5 -81.5q-91 -136 -189 -477t-223 -930h-45l-536 975 q-173 -831 -291 -988q-45 -60 -95.5 -94.5t-123.5 -34.5q-71 0 -125.5 29t-84.5 79t-30 112zM711 1608q63 168 167.5 251t221.5 83q77 0 128 -21.5t131 -75t153 -53.5q48 0 88.5 28t79.5 91l37 -10q-62 -169 -167 -251.5t-222 -82.5q-77 0 -128.5 21t-131 74.5t-152.5 53.5 q-49 0 -89 -28t-79 -91z" />
<glyph unicode="&#xd2;" horiz-adv-x="1657" d="M70 463q0 232 124.5 469t348.5 392t504 155q188 0 324 -58t209 -169t73 -267q0 -231 -125.5 -467.5t-350 -391.5t-503.5 -155q-188 0 -324 58t-208 168.5t-72 265.5zM512 436q0 -131 23 -228t64 -148.5t93 -51.5q129 0 249 147.5t193.5 381.5t73.5 477q0 131 -23 228 t-63.5 148.5t-93.5 51.5q-129 0 -249 -147.5t-193.5 -381.5t-73.5 -477zM704 1808q0 28 13 54q18 37 53.5 56.5t75.5 19.5q35 0 64 -15q35 -16 60.5 -40.5t95.5 -109t167 -167.5l-14 -25q-79 24 -140 37t-154.5 28t-139.5 40q-37 19 -59 51.5t-22 70.5z" />
<glyph unicode="&#xd3;" horiz-adv-x="1657" d="M70 463q0 232 124.5 469t348.5 392t504 155q188 0 324 -58t209 -169t73 -267q0 -231 -125.5 -467.5t-350 -391.5t-503.5 -155q-188 0 -324 58t-208 168.5t-72 265.5zM512 436q0 -131 23 -228t64 -148.5t93 -51.5q129 0 249 147.5t193.5 381.5t73.5 477q0 131 -23 228 t-63.5 148.5t-93.5 51.5q-129 0 -249 -147.5t-193.5 -381.5t-73.5 -477zM971 1606q84 74 166 162t122.5 127t92.5 67q43 24 94 24q88 0 127 -71q15 -29 15 -55q0 -75 -107 -136q-39 -21 -87 -35t-174 -43.5t-235 -64.5z" />
<glyph unicode="&#xd4;" horiz-adv-x="1657" d="M70 463q0 232 124.5 469t348.5 392t504 155q188 0 324 -58t209 -169t73 -267q0 -231 -125.5 -467.5t-350 -391.5t-503.5 -155q-188 0 -324 58t-208 168.5t-72 265.5zM512 436q0 -131 23 -228t64 -148.5t93 -51.5q129 0 249 147.5t193.5 381.5t73.5 477q0 131 -23 228 t-63.5 148.5t-93.5 51.5q-129 0 -249 -147.5t-193.5 -381.5t-73.5 -477zM633 1606q182 57 343.5 152t260.5 200h37q41 -126 104.5 -207t180.5 -145l-8 -29q-150 24 -251.5 49.5t-195.5 61.5q-200 -68 -460 -111z" />
<glyph unicode="&#xd5;" horiz-adv-x="1657" d="M70 463q0 232 124.5 469t348.5 392t504 155q188 0 324 -58t209 -169t73 -267q0 -231 -125.5 -467.5t-350 -391.5t-503.5 -155q-188 0 -324 58t-208 168.5t-72 265.5zM512 436q0 -131 23 -228t64 -148.5t93 -51.5q129 0 249 147.5t193.5 381.5t73.5 477q0 131 -23 228 t-63.5 148.5t-93.5 51.5q-129 0 -249 -147.5t-193.5 -381.5t-73.5 -477zM656 1608q63 168 167.5 251t221.5 83q77 0 128 -21.5t131 -75t153 -53.5q48 0 88.5 28t79.5 91l37 -10q-62 -169 -167 -251.5t-222 -82.5q-77 0 -128.5 21t-131 74.5t-152.5 53.5q-49 0 -89 -28 t-79 -91z" />
<glyph unicode="&#xd6;" horiz-adv-x="1657" d="M70 463q0 232 124.5 469t348.5 392t504 155q188 0 324 -58t209 -169t73 -267q0 -231 -125.5 -467.5t-350 -391.5t-503.5 -155q-188 0 -324 58t-208 168.5t-72 265.5zM512 436q0 -131 23 -228t64 -148.5t93 -51.5q129 0 249 147.5t193.5 381.5t73.5 477q0 131 -23 228 t-63.5 148.5t-93.5 51.5q-129 0 -249 -147.5t-193.5 -381.5t-73.5 -477zM680 1716q0 68 28 113t74 66.5t101 21.5q78 0 116 -43t38 -117q0 -67 -29 -111t-76 -64.5t-100 -20.5q-78 0 -115 41t-37 114zM1209 1716q0 68 28 113t73.5 66.5t100.5 21.5q78 0 116 -43t38 -117 q0 -67 -29 -111t-75.5 -64.5t-100.5 -20.5q-78 0 -114.5 41t-36.5 114z" />
<glyph unicode="&#xd8;" horiz-adv-x="1657" d="M18 -121l215 219q-163 129 -163 365q0 232 124.5 469t348.5 392t504 155q246 0 400 -98l193 202l31 -27l-189 -199q171 -131 171 -372q0 -231 -125.5 -467.5t-350 -391.5t-503.5 -155q-250 0 -405 101l-216 -222zM512 436q0 -58 5 -110l685 816q-15 142 -61.5 221 t-112.5 79q-129 0 -249 -147.5t-193.5 -381.5t-73.5 -477zM524 267q18 -123 63 -191t105 -68q129 0 249 147.5t193.5 381.5t73.5 477q0 35 -2 68z" />
<glyph unicode="&#xd9;" horiz-adv-x="1438" d="M144 349q0 98 38 241l170 643q17 65 17 98q0 31 -13.5 47t-42.5 22.5t-82 8.5l13 41q120 -6 387 -6q214 0 358 6l-12 -41q-75 -3 -111.5 -16t-58 -48t-41.5 -112l-180 -678q-51 -191 -51 -309q0 -203 145 -203q215 0 338.5 139.5t189.5 390.5l125 476q45 170 45 232 q0 41 -15.5 66t-49.5 39t-94 23l12 41q80 -6 227 -6q108 0 172 6l-12 -41q-67 -14 -105 -44t-65 -91.5t-59 -183.5l-127 -494q-75 -285 -201 -434q-75 -88 -185 -139.5t-235 -51.5q-179 0 -292.5 52.5t-162.5 142.5q-42 78 -42 183zM622 1808q0 28 13 54q18 37 53.5 56.5 t75.5 19.5q35 0 64 -15q35 -16 60.5 -40.5t95.5 -109t167 -167.5l-14 -25q-79 24 -140 37t-154.5 28t-139.5 40q-37 19 -59 51.5t-22 70.5z" />
<glyph unicode="&#xda;" horiz-adv-x="1438" d="M144 349q0 98 38 241l170 643q17 65 17 98q0 31 -13.5 47t-42.5 22.5t-82 8.5l13 41q120 -6 387 -6q214 0 358 6l-12 -41q-75 -3 -111.5 -16t-58 -48t-41.5 -112l-180 -678q-51 -191 -51 -309q0 -203 145 -203q215 0 338.5 139.5t189.5 390.5l125 476q45 170 45 232 q0 41 -15.5 66t-49.5 39t-94 23l12 41q80 -6 227 -6q108 0 172 6l-12 -41q-67 -14 -105 -44t-65 -91.5t-59 -183.5l-127 -494q-75 -285 -201 -434q-75 -88 -185 -139.5t-235 -51.5q-179 0 -292.5 52.5t-162.5 142.5q-42 78 -42 183zM889 1606q84 74 166 162t122.5 127 t92.5 67q43 24 94 24q88 0 127 -71q15 -29 15 -55q0 -75 -107 -136q-39 -21 -87 -35t-174 -43.5t-235 -64.5z" />
<glyph unicode="&#xdb;" horiz-adv-x="1438" d="M144 349q0 98 38 241l170 643q17 65 17 98q0 31 -13.5 47t-42.5 22.5t-82 8.5l13 41q120 -6 387 -6q214 0 358 6l-12 -41q-75 -3 -111.5 -16t-58 -48t-41.5 -112l-180 -678q-51 -191 -51 -309q0 -203 145 -203q215 0 338.5 139.5t189.5 390.5l125 476q45 170 45 232 q0 41 -15.5 66t-49.5 39t-94 23l12 41q80 -6 227 -6q108 0 172 6l-12 -41q-67 -14 -105 -44t-65 -91.5t-59 -183.5l-127 -494q-75 -285 -201 -434q-75 -88 -185 -139.5t-235 -51.5q-179 0 -292.5 52.5t-162.5 142.5q-42 78 -42 183zM551 1606q182 57 343.5 152t260.5 200h37 q41 -126 104.5 -207t180.5 -145l-8 -29q-150 24 -251.5 49.5t-195.5 61.5q-200 -68 -460 -111z" />
<glyph unicode="&#xdc;" horiz-adv-x="1438" d="M144 349q0 98 38 241l170 643q17 65 17 98q0 31 -13.5 47t-42.5 22.5t-82 8.5l13 41q120 -6 387 -6q214 0 358 6l-12 -41q-75 -3 -111.5 -16t-58 -48t-41.5 -112l-180 -678q-51 -191 -51 -309q0 -203 145 -203q215 0 338.5 139.5t189.5 390.5l125 476q45 170 45 232 q0 41 -15.5 66t-49.5 39t-94 23l12 41q80 -6 227 -6q108 0 172 6l-12 -41q-67 -14 -105 -44t-65 -91.5t-59 -183.5l-127 -494q-75 -285 -201 -434q-75 -88 -185 -139.5t-235 -51.5q-179 0 -292.5 52.5t-162.5 142.5q-42 78 -42 183zM598 1716q0 68 28 113t74 66.5t101 21.5 q78 0 116 -43t38 -117q0 -67 -29 -111t-76 -64.5t-100 -20.5q-78 0 -115 41t-37 114zM1127 1716q0 68 28 113t73.5 66.5t100.5 21.5q78 0 116 -43t38 -117q0 -67 -29 -111t-75.5 -64.5t-100.5 -20.5q-78 0 -114.5 41t-36.5 114z" />
<glyph unicode="&#xdd;" horiz-adv-x="1589" d="M150 1102l43 131q43 132 134.5 189t211.5 57q152 0 234 -80t120.5 -227.5t69.5 -415.5q128 395 303 600q105 123 243 123q71 0 125.5 -29t84.5 -79t30 -111q0 -64 -30.5 -113.5t-82.5 -76t-116 -26.5q-84 0 -133.5 40.5t-49.5 111.5q0 60 28 109t76.5 80.5t108.5 41.5 q-15 17 -51 17q-33 0 -63.5 -11t-67.5 -38q-53 -39 -126.5 -146t-148.5 -272.5t-130 -367.5l-99 -392q-11 -46 -11 -73q0 -41 19 -62.5t55.5 -29.5t98.5 -11l-10 -41q-129 6 -418 6q-251 0 -371 -6l11 41q74 3 111 16t59 48.5t41 111.5l105 419q-18 167 -50 318.5t-78.5 250 t-103.5 98.5q-36 0 -57 -27t-36 -70l-34 -104h-45zM868 1606q84 74 166 162t122.5 127t92.5 67q43 24 94 24q88 0 127 -71q15 -29 15 -55q0 -75 -107 -136q-39 -21 -87 -35t-174 -43.5t-235 -64.5z" />
<glyph unicode="&#xde;" horiz-adv-x="1430" d="M-96 0l10 41q71 3 107 16t58 48.5t42 111.5l270 1016q17 65 17 98q0 31 -13.5 47t-42.5 22.5t-82 8.5l11 41q113 -6 362 -6q232 0 385 6l-10 -41q-75 -3 -111.5 -16t-58 -48t-41.5 -112l-26 -98q77 2 126 2q177 0 295.5 -38t177 -107.5t58.5 -164.5q0 -158 -112 -284.5 t-313.5 -199t-461.5 -73.5l-14 -53q-18 -70 -18 -100t13.5 -45.5t42.5 -22t82 -8.5l-8 -41q-132 6 -383 6q-242 0 -362 -6zM562 311h1q142 0 242 78.5t150.5 204t50.5 266.5q0 68 -23.5 122t-68.5 85t-107 31h-36z" />
<glyph unicode="&#xdf;" horiz-adv-x="1327" d="M-135 -385l381 1440q50 193 130.5 312t208 177t318.5 58q155 0 256 -28.5t147 -74t46 -98.5q0 -71 -51 -120t-178.5 -130t-202.5 -139q-56 -44 -83 -72t-33.5 -43.5t-6.5 -32.5q0 -56 46 -107.5t102 -97t77 -63.5q13 -11 80.5 -67t96 -109t28.5 -113q0 -111 -66 -187 t-173.5 -112.5t-233.5 -36.5q-96 0 -163.5 32.5t-101.5 88.5t-34 127q0 49 18 92t51 69t76 26q41 0 73 -25.5t50 -70.5t18 -101q0 -53 -19 -107.5t-52 -85.5q12 -4 28 -4q31 0 56.5 24.5t40 68.5t14.5 98q0 55 -9.5 100.5t-22 89t-17.5 60.5q-7 23 -26 84t-30.5 113.5 t-11.5 92.5q0 69 28.5 113.5t77 92.5t76.5 77q123 127 123 363q0 94 -39 138t-98 44q-65 0 -110 -67t-80 -201l-437 -1659q-212 -3 -368 -29z" />
<glyph unicode="&#xe0;" d="M-14 227q0 193 103 395.5t258 336t296 133.5q116 0 128 -118l26 87q203 3 370 31l-276 -918q-9 -27 -9 -50q0 -36 33 -36q61 0 109 129l43 115h39l-51 -150q-74 -211 -293 -211q-126 0 -178 72q-34 48 -34 126q0 23 1 36q-49 -127 -127 -180.5t-184 -53.5 q-127 0 -190.5 65.5t-63.5 190.5zM371 219q0 -60 10 -84t37 -24q40 0 81 57.5t91 205.5l160 530q2 20 2 30q0 57 -39 57q-58 0 -140.5 -118.5t-142 -298.5t-59.5 -355zM455 1622q0 33 14.5 61t42.5 46q31 20 70 20t74 -19t53 -49q21 -32 30 -66.5t24 -143.5t54 -230l-24 -14 q-55 62 -100.5 105t-117 105t-98.5 107q-22 38 -22 78z" />
<glyph unicode="&#xe1;" d="M-14 227q0 193 103 395.5t258 336t296 133.5q116 0 128 -118l26 87q203 3 370 31l-276 -918q-9 -27 -9 -50q0 -36 33 -36q61 0 109 129l43 115h39l-51 -150q-74 -211 -293 -211q-126 0 -178 72q-34 48 -34 126q0 23 1 36q-49 -127 -127 -180.5t-184 -53.5 q-127 0 -190.5 65.5t-63.5 190.5zM371 219q0 -60 10 -84t37 -24q40 0 81 57.5t91 205.5l160 530q2 20 2 30q0 57 -39 57q-58 0 -140.5 -118.5t-142 -298.5t-59.5 -355zM672 1247q60 95 113 202.5t80.5 156.5t68.5 90q26 26 61 42t70 16q55 0 95 -40q34 -34 34 -77 q0 -61 -67 -130q-32 -32 -74 -59t-154.5 -91.5t-205.5 -129.5z" />
<glyph unicode="&#xe2;" d="M-14 227q0 193 103 395.5t258 336t296 133.5q116 0 128 -118l26 87q203 3 370 31l-276 -918q-9 -27 -9 -50q0 -36 33 -36q61 0 109 129l43 115h39l-51 -150q-74 -211 -293 -211q-126 0 -178 72q-34 48 -34 126q0 23 1 36q-49 -127 -127 -180.5t-184 -53.5 q-127 0 -190.5 65.5t-63.5 190.5zM369 1270q158 69 297 186t226 248h36q33 -156 88.5 -257t155.5 -177l-8 -29q-242 43 -406 111q-154 -65 -378 -111zM371 219q0 -60 10 -84t37 -24q40 0 81 57.5t91 205.5l160 530q2 20 2 30q0 57 -39 57q-58 0 -140.5 -118.5t-142 -298.5 t-59.5 -355z" />
<glyph unicode="&#xe3;" d="M-14 227q0 193 103 395.5t258 336t296 133.5q116 0 128 -118l26 87q203 3 370 31l-276 -918q-9 -27 -9 -50q0 -36 33 -36q61 0 109 129l43 115h39l-51 -150q-74 -211 -293 -211q-126 0 -178 72q-34 48 -34 126q0 23 1 36q-49 -127 -127 -180.5t-184 -53.5 q-127 0 -190.5 65.5t-63.5 190.5zM371 219q0 -60 10 -84t37 -24q40 0 81 57.5t91 205.5l160 530q2 20 2 30q0 57 -39 57q-58 0 -140.5 -118.5t-142 -298.5t-59.5 -355zM416 1300q57 169 150.5 251.5t197.5 82.5q59 0 98 -21.5t98 -74.5t113 -53q42 0 77.5 28t70.5 91l37 -11 q-57 -168 -151 -250.5t-198 -82.5q-59 0 -97.5 21.5t-98 74.5t-113.5 53q-42 0 -77 -28t-70 -91z" />
<glyph unicode="&#xe4;" d="M-14 227q0 193 103 395.5t258 336t296 133.5q116 0 128 -118l26 87q203 3 370 31l-276 -918q-9 -27 -9 -50q0 -36 33 -36q61 0 109 129l43 115h39l-51 -150q-74 -211 -293 -211q-126 0 -178 72q-34 48 -34 126q0 23 1 36q-49 -127 -127 -180.5t-184 -53.5 q-127 0 -190.5 65.5t-63.5 190.5zM371 219q0 -60 10 -84t37 -24q40 0 81 57.5t91 205.5l160 530q2 20 2 30q0 57 -39 57q-58 0 -140.5 -118.5t-142 -298.5t-59.5 -355zM414 1380q0 68 28 113t74 66.5t101 21.5q79 0 116.5 -42.5t37.5 -117.5q0 -67 -29 -111t-76 -64.5 t-100 -20.5q-78 0 -115 41t-37 114zM902 1380q0 100 58.5 150.5t144.5 50.5q78 0 115.5 -42.5t37.5 -117.5q0 -67 -29 -111t-75.5 -64.5t-100.5 -20.5q-78 0 -114.5 41t-36.5 114z" />
<glyph unicode="&#xe5;" d="M-14 227q0 193 103 395.5t258 336t296 133.5q116 0 128 -118l26 87q203 3 370 31l-276 -918q-9 -27 -9 -50q0 -36 33 -36q61 0 109 129l43 115h39l-51 -150q-74 -211 -293 -211q-126 0 -178 72q-34 48 -34 126q0 23 1 36q-49 -127 -127 -180.5t-184 -53.5 q-127 0 -190.5 65.5t-63.5 190.5zM371 219q0 -60 10 -84t37 -24q40 0 81 57.5t91 205.5l160 530q2 20 2 30q0 57 -39 57q-58 0 -140.5 -118.5t-142 -298.5t-59.5 -355zM607 1409q0 64 35 117t95.5 83.5t133.5 30.5q61 0 110.5 -22.5t78 -64t28.5 -95.5q0 -63 -38 -116.5 t-100.5 -85t-133.5 -31.5q-60 0 -107.5 22t-74.5 64t-27 98zM662 1409q0 -44 23 -76t61 -48.5t80 -16.5q53 0 101 25t78 68t30 93q0 46 -25 78.5t-64 48.5t-81 16q-54 0 -101 -26.5t-74.5 -70t-27.5 -91.5z" />
<glyph unicode="&#xe6;" horiz-adv-x="1608" d="M-25 227q0 185 130 378t331.5 319.5t401.5 126.5q113 0 154 -68q176 109 376 109q114 0 184 -46t70 -135q0 -117 -93 -215t-240 -167t-313 -107q-7 -55 -7 -105q0 -112 43 -155t127 -43q51 0 131.5 35t154.5 108l33 -16q-78 -117 -211 -196t-307 -79q-115 0 -204 45 t-127 129q-71 -85 -171 -129.5t-209 -44.5q-127 0 -190.5 65.5t-63.5 190.5zM360 240q0 -65 30 -97t71 -32q37 0 68 14.5t68 52.5q-11 38 -11 82q0 131 46 263.5t131 246.5t198 192q-26 29 -72 29q-111 0 -235.5 -109t-209 -283t-84.5 -359zM981 457q123 59 184 114 q92 83 141.5 193.5t49.5 236.5q0 52 -33 52q-57 0 -128.5 -89t-130.5 -228t-83 -279z" />
<glyph unicode="&#xe7;" horiz-adv-x="991" d="M-12 -348l13 33q60 -21 125 -21q59 0 113.5 18t54.5 68q0 22 -16 34.5t-42 12.5q-35 0 -63 -14l172 217h59l-102 -137q74 24 127 24q65 0 106 -22t41 -66q0 -64 -56 -105t-145 -60t-190 -19q-110 0 -197 37zM4 295q0 182 94.5 368t266.5 307.5t391 121.5q82 0 142.5 -29 t92 -77.5t31.5 -106.5q0 -65 -33 -127.5t-88.5 -102t-118.5 -39.5q-37 0 -68.5 16.5t-51 49t-19.5 78.5q0 64 29 120t76.5 95.5t103.5 56.5q-28 25 -70 25q-99 0 -190.5 -109.5t-148 -282.5t-56.5 -352q0 -106 43.5 -157.5t120.5 -51.5q65 0 125 37t121 127l41 -16 q-177 -275 -469 -275q-107 0 -189.5 35.5t-129 108t-46.5 180.5z" />
<glyph unicode="&#xe8;" horiz-adv-x="1016" d="M-6 260q0 201 103.5 394t283 315.5t395.5 122.5q115 0 184.5 -46t69.5 -135q0 -117 -93 -215t-240 -167t-313 -107q-7 -55 -7 -105q0 -112 43 -155t127 -43q51 0 131.5 35t155.5 108l32 -16q-78 -117 -211 -196t-307 -79q-98 0 -178.5 33.5t-128 98.5t-47.5 157zM390 459 q106 59 188 139q186 184 186 403q0 52 -33 52q-57 0 -128 -88.5t-130 -227t-83 -278.5zM412 1622q0 33 14.5 61t42.5 46q31 20 70 20t74 -19t53 -49q21 -32 30 -66.5t24 -143.5t54 -230l-24 -14q-55 62 -100.5 105t-117 105t-98.5 107q-22 38 -22 78z" />
<glyph unicode="&#xe9;" horiz-adv-x="1016" d="M-6 260q0 201 103.5 394t283 315.5t395.5 122.5q115 0 184.5 -46t69.5 -135q0 -117 -93 -215t-240 -167t-313 -107q-7 -55 -7 -105q0 -112 43 -155t127 -43q51 0 131.5 35t155.5 108l32 -16q-78 -117 -211 -196t-307 -79q-98 0 -178.5 33.5t-128 98.5t-47.5 157zM390 459 q106 59 188 139q186 184 186 403q0 52 -33 52q-57 0 -128 -88.5t-130 -227t-83 -278.5zM629 1247q60 95 113 202.5t80.5 156.5t68.5 90q26 26 61 42t70 16q55 0 95 -40q34 -34 34 -77q0 -61 -67 -130q-32 -32 -74 -59t-154.5 -91.5t-205.5 -129.5z" />
<glyph unicode="&#xea;" horiz-adv-x="1016" d="M-6 260q0 201 103.5 394t283 315.5t395.5 122.5q115 0 184.5 -46t69.5 -135q0 -117 -93 -215t-240 -167t-313 -107q-7 -55 -7 -105q0 -112 43 -155t127 -43q51 0 131.5 35t155.5 108l32 -16q-78 -117 -211 -196t-307 -79q-98 0 -178.5 33.5t-128 98.5t-47.5 157z M326 1270q158 69 297 186t226 248h36q33 -156 88.5 -257t155.5 -177l-8 -29q-242 43 -406 111q-154 -65 -378 -111zM390 459q106 59 188 139q186 184 186 403q0 52 -33 52q-57 0 -128 -88.5t-130 -227t-83 -278.5z" />
<glyph unicode="&#xeb;" horiz-adv-x="1016" d="M-6 260q0 201 103.5 394t283 315.5t395.5 122.5q115 0 184.5 -46t69.5 -135q0 -117 -93 -215t-240 -167t-313 -107q-7 -55 -7 -105q0 -112 43 -155t127 -43q51 0 131.5 35t155.5 108l32 -16q-78 -117 -211 -196t-307 -79q-98 0 -178.5 33.5t-128 98.5t-47.5 157z M371 1380q0 68 28 113t74 66.5t101 21.5q79 0 116.5 -42.5t37.5 -117.5q0 -67 -29 -111t-76 -64.5t-100 -20.5q-78 0 -115 41t-37 114zM390 459q106 59 188 139q186 184 186 403q0 52 -33 52q-57 0 -128 -88.5t-130 -227t-83 -278.5zM859 1380q0 100 58.5 150.5t144.5 50.5 q78 0 115.5 -42.5t37.5 -117.5q0 -67 -29 -111t-75.5 -64.5t-100.5 -20.5q-78 0 -114.5 41t-36.5 114z" />
<glyph unicode="&#xec;" horiz-adv-x="686" d="M40 165q0 68 30 159l188 565q11 29 11 51q0 35 -29 35q-32 0 -59 -29t-54 -100l-47 -125h-39l57 160q77 211 305 211q110 0 162 -53t52 -136q0 -49 -17 -98l-213 -631q-10 -30 -10 -50q0 -36 35 -36q60 0 108 129l43 115h39l-51 -150q-72 -211 -293 -211q-104 0 -161 49 t-57 145zM129 1622q0 33 14.5 61t42.5 46q31 20 70 20t74 -19t53 -49q21 -32 30 -66.5t24 -143.5t54 -230l-24 -14q-55 62 -100.5 105t-117 105t-98.5 107q-22 38 -22 78z" />
<glyph unicode="&#xed;" horiz-adv-x="686" d="M40 165q0 68 30 159l188 565q11 29 11 51q0 35 -29 35q-32 0 -59 -29t-54 -100l-47 -125h-39l57 160q77 211 305 211q110 0 162 -53t52 -136q0 -49 -17 -98l-213 -631q-10 -30 -10 -50q0 -36 35 -36q60 0 108 129l43 115h39l-51 -150q-72 -211 -293 -211q-104 0 -161 49 t-57 145zM346 1247q60 95 113 202.5t80.5 156.5t68.5 90q26 26 61 42t70 16q55 0 95 -40q34 -34 34 -77q0 -61 -67 -130q-32 -32 -74 -59t-154.5 -91.5t-205.5 -129.5z" />
<glyph unicode="&#xee;" horiz-adv-x="686" d="M40 165q0 68 30 159l188 565q11 29 11 51q0 35 -29 35q-32 0 -59 -29t-54 -100l-47 -125h-39l57 160q77 211 305 211q110 0 162 -53t52 -136q0 -49 -17 -98l-213 -631q-10 -30 -10 -50q0 -36 35 -36q60 0 108 129l43 115h39l-51 -150q-72 -211 -293 -211q-104 0 -161 49 t-57 145zM43 1270q158 69 297 186t226 248h36q33 -156 88.5 -257t155.5 -177l-8 -29q-242 43 -406 111q-154 -65 -378 -111z" />
<glyph unicode="&#xef;" horiz-adv-x="686" d="M40 165q0 68 30 159l188 565q11 29 11 51q0 35 -29 35q-32 0 -59 -29t-54 -100l-47 -125h-39l57 160q77 211 305 211q110 0 162 -53t52 -136q0 -49 -17 -98l-213 -631q-10 -30 -10 -50q0 -36 35 -36q60 0 108 129l43 115h39l-51 -150q-72 -211 -293 -211q-104 0 -161 49 t-57 145zM88 1380q0 68 28 113t74 66.5t101 21.5q79 0 116.5 -42.5t37.5 -117.5q0 -67 -29 -111t-76 -64.5t-100 -20.5q-78 0 -115 41t-37 114zM576 1380q0 100 58.5 150.5t144.5 50.5q78 0 115.5 -42.5t37.5 -117.5q0 -67 -29 -111t-75.5 -64.5t-100.5 -20.5 q-78 0 -114.5 41t-36.5 114z" />
<glyph unicode="&#xf0;" horiz-adv-x="1139" d="M12 322q0 164 77.5 342t220.5 297.5t327 119.5q33 0 56 -4q-22 136 -77 241l-331 -147l-13 37l325 144q-75 127 -208 215l25 35q192 -60 344 -178l299 132l12 -36l-278 -122q141 -120 220 -275.5t79 -327.5q0 -206 -83 -395.5t-245 -309t-385 -119.5q-166 0 -265.5 82.5 t-99.5 268.5zM393 137q0 -55 3.5 -81t11.5 -35t24 -9q70 0 134.5 135t103.5 335.5t39 379.5q0 93 -10 174q-17 4 -31 4q-87 0 -149.5 -144.5t-94 -355t-31.5 -403.5z" />
<glyph unicode="&#xf1;" horiz-adv-x="1268" d="M6 0l250 889q12 45 12 59q0 27 -30 27q-32 0 -59 -29t-54 -100l-47 -125h-39l57 160q38 108 107 159.5t174 51.5q115 0 165.5 -54t50.5 -139q0 -44 -13 -94l-56 -213q80 200 153.5 308.5t148.5 150t171 41.5q201 0 201 -170q0 -59 -27 -140l-202 -608q-10 -30 -10 -49 q0 -37 34 -37q61 0 109 129l43 115h39l-51 -150q-74 -211 -293 -211q-132 0 -185 74q-34 46 -34 115q0 65 32 164l176 530q18 52 18 80q0 31 -22 31q-53 0 -137.5 -143.5t-171 -367t-145.5 -448.5l1 4l-3 -10h-363zM387 1300q57 169 150.5 251.5t197.5 82.5q59 0 98 -21.5 t98 -74.5t113 -53q42 0 77.5 28t70.5 91l37 -11q-57 -168 -151 -250.5t-198 -82.5q-59 0 -97.5 21.5t-98 74.5t-113.5 53q-42 0 -77 -28t-70 -91z" />
<glyph unicode="&#xf2;" horiz-adv-x="1141" d="M12 319q0 174 80 353t241 299.5t392 120.5q178 0 271.5 -90t93.5 -259q0 -173 -80 -352t-241.5 -299.5t-391.5 -120.5q-178 0 -271.5 90t-93.5 258zM352 127q0 -63 9.5 -89t29.5 -26q55 0 142 148t152 363.5t65 408.5q0 71 -9.5 95t-25.5 24q-58 0 -145.5 -154 t-152.5 -372t-65 -398zM426 1622q0 33 14.5 61t42.5 46q31 20 70 20t74 -19t53 -49q21 -32 30 -66.5t24 -143.5t54 -230l-24 -14q-55 62 -100.5 105t-117 105t-98.5 107q-22 38 -22 78z" />
<glyph unicode="&#xf3;" horiz-adv-x="1141" d="M12 319q0 174 80 353t241 299.5t392 120.5q178 0 271.5 -90t93.5 -259q0 -173 -80 -352t-241.5 -299.5t-391.5 -120.5q-178 0 -271.5 90t-93.5 258zM352 127q0 -63 9.5 -89t29.5 -26q55 0 142 148t152 363.5t65 408.5q0 71 -9.5 95t-25.5 24q-58 0 -145.5 -154 t-152.5 -372t-65 -398zM643 1247q60 95 113 202.5t80.5 156.5t68.5 90q26 26 61 42t70 16q55 0 95 -40q34 -34 34 -77q0 -61 -67 -130q-32 -32 -74 -59t-154.5 -91.5t-205.5 -129.5z" />
<glyph unicode="&#xf4;" horiz-adv-x="1141" d="M12 319q0 174 80 353t241 299.5t392 120.5q178 0 271.5 -90t93.5 -259q0 -173 -80 -352t-241.5 -299.5t-391.5 -120.5q-178 0 -271.5 90t-93.5 258zM340 1270q158 69 297 186t226 248h36q33 -156 88.5 -257t155.5 -177l-8 -29q-242 43 -406 111q-154 -65 -378 -111z M352 127q0 -63 9.5 -89t29.5 -26q55 0 142 148t152 363.5t65 408.5q0 71 -9.5 95t-25.5 24q-58 0 -145.5 -154t-152.5 -372t-65 -398z" />
<glyph unicode="&#xf5;" horiz-adv-x="1141" d="M12 319q0 174 80 353t241 299.5t392 120.5q178 0 271.5 -90t93.5 -259q0 -173 -80 -352t-241.5 -299.5t-391.5 -120.5q-178 0 -271.5 90t-93.5 258zM352 127q0 -63 9.5 -89t29.5 -26q55 0 142 148t152 363.5t65 408.5q0 71 -9.5 95t-25.5 24q-58 0 -145.5 -154 t-152.5 -372t-65 -398zM387 1300q57 169 150.5 251.5t197.5 82.5q59 0 98 -21.5t98 -74.5t113 -53q42 0 77.5 28t70.5 91l37 -11q-57 -168 -151 -250.5t-198 -82.5q-59 0 -97.5 21.5t-98 74.5t-113.5 53q-42 0 -77 -28t-70 -91z" />
<glyph unicode="&#xf6;" horiz-adv-x="1141" d="M12 319q0 174 80 353t241 299.5t392 120.5q178 0 271.5 -90t93.5 -259q0 -173 -80 -352t-241.5 -299.5t-391.5 -120.5q-178 0 -271.5 90t-93.5 258zM352 127q0 -63 9.5 -89t29.5 -26q55 0 142 148t152 363.5t65 408.5q0 71 -9.5 95t-25.5 24q-58 0 -145.5 -154 t-152.5 -372t-65 -398zM385 1380q0 68 28 113t74 66.5t101 21.5q79 0 116.5 -42.5t37.5 -117.5q0 -67 -29 -111t-76 -64.5t-100 -20.5q-78 0 -115 41t-37 114zM873 1380q0 100 58.5 150.5t144.5 50.5q78 0 115.5 -42.5t37.5 -117.5q0 -67 -29 -111t-75.5 -64.5t-100.5 -20.5 q-78 0 -114.5 41t-36.5 114z" />
<glyph unicode="&#xf7;" horiz-adv-x="1274" d="M148 696l18 62h1026l-18 -62h-1026zM515 401q0 13 5 31q14 47 57 80t89 33q39 0 63 -23t24 -59q0 -13 -5 -31q-14 -48 -57 -81.5t-91 -33.5q-38 0 -61.5 24t-23.5 60zM685 990q0 14 5 32q14 46 57 79.5t89 33.5q39 0 63 -23.5t24 -59.5q0 -13 -5 -30q-14 -48 -57 -80.5 t-91 -32.5q-38 0 -61.5 22.5t-23.5 58.5z" />
<glyph unicode="&#xf8;" horiz-adv-x="1139" d="M12 319q0 174 80 353t241 299.5t392 120.5q62 0 114 -11l103 164l35 -16l-101 -158q105 -33 159.5 -116.5t54.5 -211.5q0 -173 -80 -352t-241.5 -299.5t-391.5 -120.5q-71 0 -129 15l-109 -170l-33 18l104 163q-97 36 -147.5 117.5t-50.5 204.5zM352 127q0 -63 9.5 -89 t29.5 -26q54 0 138 140.5t149 348t71 397.5zM355 208l394 760q-4 83 -34 83q-54 0 -134.5 -134.5t-145.5 -332.5t-80 -376z" />
<glyph unicode="&#xf9;" horiz-adv-x="1264" d="M33 142q0 58 26 139l199 608q10 30 10 49q0 37 -35 37q-60 0 -108 -129l-43 -115h-39l51 150q74 211 293 211q103 0 159.5 -48.5t56.5 -144.5q0 -71 -30 -160l-176 -530q-17 -54 -17 -80q0 -31 21 -31q50 0 127 125t159 324.5t144 411.5l27 104q226 3 371 29l-258 -918 q-13 -42 -13 -59q0 -27 31 -27q32 0 59 29t54 100l47 125h39l-58 -160q-39 -109 -116 -160t-176 -51q-136 0 -183 80q-24 41 -24 99q0 49 16 108l46 176q-78 -187 -150 -287.5t-146.5 -138t-171.5 -37.5q-93 0 -142.5 43.5t-49.5 127.5zM412 1622q0 33 14.5 61t42.5 46 q31 20 70 20t74 -19t53 -49q21 -32 30 -66.5t24 -143.5t54 -230l-24 -14q-55 62 -100.5 105t-117 105t-98.5 107q-22 38 -22 78z" />
<glyph unicode="&#xfa;" horiz-adv-x="1264" d="M33 142q0 58 26 139l199 608q10 30 10 49q0 37 -35 37q-60 0 -108 -129l-43 -115h-39l51 150q74 211 293 211q103 0 159.5 -48.5t56.5 -144.5q0 -71 -30 -160l-176 -530q-17 -54 -17 -80q0 -31 21 -31q50 0 127 125t159 324.5t144 411.5l27 104q226 3 371 29l-258 -918 q-13 -42 -13 -59q0 -27 31 -27q32 0 59 29t54 100l47 125h39l-58 -160q-39 -109 -116 -160t-176 -51q-136 0 -183 80q-24 41 -24 99q0 49 16 108l46 176q-78 -187 -150 -287.5t-146.5 -138t-171.5 -37.5q-93 0 -142.5 43.5t-49.5 127.5zM629 1247q60 95 113 202.5 t80.5 156.5t68.5 90q26 26 61 42t70 16q55 0 95 -40q34 -34 34 -77q0 -61 -67 -130q-32 -32 -74 -59t-154.5 -91.5t-205.5 -129.5z" />
<glyph unicode="&#xfb;" horiz-adv-x="1264" d="M33 142q0 58 26 139l199 608q10 30 10 49q0 37 -35 37q-60 0 -108 -129l-43 -115h-39l51 150q74 211 293 211q103 0 159.5 -48.5t56.5 -144.5q0 -71 -30 -160l-176 -530q-17 -54 -17 -80q0 -31 21 -31q50 0 127 125t159 324.5t144 411.5l27 104q226 3 371 29l-258 -918 q-13 -42 -13 -59q0 -27 31 -27q32 0 59 29t54 100l47 125h39l-58 -160q-39 -109 -116 -160t-176 -51q-136 0 -183 80q-24 41 -24 99q0 49 16 108l46 176q-78 -187 -150 -287.5t-146.5 -138t-171.5 -37.5q-93 0 -142.5 43.5t-49.5 127.5zM326 1270q158 69 297 186t226 248h36 q33 -156 88.5 -257t155.5 -177l-8 -29q-242 43 -406 111q-154 -65 -378 -111z" />
<glyph unicode="&#xfc;" horiz-adv-x="1264" d="M33 142q0 58 26 139l199 608q10 30 10 49q0 37 -35 37q-60 0 -108 -129l-43 -115h-39l51 150q74 211 293 211q103 0 159.5 -48.5t56.5 -144.5q0 -71 -30 -160l-176 -530q-17 -54 -17 -80q0 -31 21 -31q50 0 127 125t159 324.5t144 411.5l27 104q226 3 371 29l-258 -918 q-13 -42 -13 -59q0 -27 31 -27q32 0 59 29t54 100l47 125h39l-58 -160q-39 -109 -116 -160t-176 -51q-136 0 -183 80q-24 41 -24 99q0 49 16 108l46 176q-78 -187 -150 -287.5t-146.5 -138t-171.5 -37.5q-93 0 -142.5 43.5t-49.5 127.5zM371 1380q0 68 28 113t74 66.5 t101 21.5q79 0 116.5 -42.5t37.5 -117.5q0 -67 -29 -111t-76 -64.5t-100 -20.5q-78 0 -115 41t-37 114zM859 1380q0 100 58.5 150.5t144.5 50.5q78 0 115.5 -42.5t37.5 -117.5q0 -67 -29 -111t-75.5 -64.5t-100.5 -20.5q-78 0 -114.5 41t-36.5 114z" />
<glyph unicode="&#xfd;" horiz-adv-x="989" d="M-270 -250q0 41 20 75t57 54.5t87 20.5q147 0 251 -181q127 57 239 154l-167 1014q-10 53 -17.5 70.5t-25.5 17.5q-14 0 -24.5 -10t-23.5 -36.5t-34 -82.5l-43 -115h-39l51 150q41 118 105.5 164.5t159.5 46.5q103 0 162 -54t79 -190l90 -656q138 209 213 422 q-97 54 -155 135.5t-58 174.5q0 77 42 122.5t118 45.5q156 0 156 -199q0 -119 -54.5 -276t-147 -318t-202.5 -291q-129 -153 -269.5 -248.5t-279.5 -128.5q-69 -16 -120 -16q-82 0 -126 35.5t-44 99.5zM547 1247q60 95 113 202.5t80.5 156.5t68.5 90q26 26 61 42t70 16 q55 0 95 -40q34 -34 34 -77q0 -61 -67 -130q-32 -32 -74 -59t-154.5 -91.5t-205.5 -129.5z" />
<glyph unicode="&#xfe;" horiz-adv-x="1241" d="M-213 -371l12 43q50 0 80 11.5t48 38.5t32 77l365 1312q-54 -123 -124 -222t-169 -207l-23 27q88 98 144.5 172.5t115 182.5t116.5 262l62 224q202 18 383 78l-216 -767q61 119 133.5 175t162.5 56q141 0 211 -86t70 -248q0 -169 -76 -353.5t-217.5 -309t-327.5 -124.5 q-115 0 -195 42l-42 -150q-16 -59 -16 -90q0 -58 40 -78.5t129 -22.5l-12 -43q-31 1 -140.5 5t-215.5 4q-97 0 -201 -4t-129 -5zM384 47q26 -8 52 -8q89 0 176 115.5t142 291.5t55 342q0 70 -6 106t-16.5 48t-26.5 12q-45 0 -96 -69t-96 -183z" />
<glyph unicode="&#xff;" horiz-adv-x="989" d="M-270 -250q0 41 20 75t57 54.5t87 20.5q147 0 251 -181q127 57 239 154l-167 1014q-10 53 -17.5 70.5t-25.5 17.5q-14 0 -24.5 -10t-23.5 -36.5t-34 -82.5l-43 -115h-39l51 150q41 118 105.5 164.5t159.5 46.5q103 0 162 -54t79 -190l90 -656q138 209 213 422 q-97 54 -155 135.5t-58 174.5q0 77 42 122.5t118 45.5q156 0 156 -199q0 -119 -54.5 -276t-147 -318t-202.5 -291q-129 -153 -269.5 -248.5t-279.5 -128.5q-69 -16 -120 -16q-82 0 -126 35.5t-44 99.5zM289 1380q0 68 28 113t74 66.5t101 21.5q79 0 116.5 -42.5t37.5 -117.5 q0 -67 -29 -111t-76 -64.5t-100 -20.5q-78 0 -115 41t-37 114zM777 1380q0 100 58.5 150.5t144.5 50.5q78 0 115.5 -42.5t37.5 -117.5q0 -67 -29 -111t-75.5 -64.5t-100.5 -20.5q-78 0 -114.5 41t-36.5 114z" />
<glyph unicode="&#x104;" horiz-adv-x="1370" d="M-197 0l9 41q40 11 74 36.5t73.5 73t101.5 134.5l836 1175q33 -4 79 -4t75 4l82 -1288q5 -67 34 -98t66 -33l-8 -41q-120 6 -346 6q-238 0 -349 -6l9 41q66 3 103 15.5t55.5 43t18.5 87.5q0 17 -1 26l-18 336h-402l-199 -281q-48 -70 -48 -117q0 -96 188 -110l-9 -41 q-211 6 -290 6q-70 0 -134 -6zM324 590h371l-25 489zM645 -260q0 89 125.5 157t317.5 109h36q-64 -26 -109 -66t-67 -84t-22 -83q0 -54 59 -54q62 0 146 39l22 -34q-155 -109 -321 -109q-86 0 -136.5 33t-50.5 92z" />
<glyph unicode="&#x105;" d="M-14 227q0 193 103 395.5t258 336t296 133.5q116 0 128 -118l26 87q203 3 370 31l-276 -918q-9 -27 -9 -50q0 -36 33 -36q61 0 109 129l43 115h39l-51 -150q-74 -211 -293 -211q-126 0 -178 72q-34 48 -34 126q0 23 1 36q-49 -127 -127 -180.5t-184 -53.5 q-127 0 -190.5 65.5t-63.5 190.5zM371 219q0 -60 10 -84t37 -24q40 0 81 57.5t91 205.5l160 530q2 20 2 30q0 57 -39 57q-58 0 -140.5 -118.5t-142 -298.5t-59.5 -355zM434 -260q0 89 125.5 157t316.5 109h37q-64 -26 -109 -66.5t-67 -85t-22 -85.5q0 -50 47 -50 q28 0 60.5 17.5t60.5 44.5l30 -27q-116 -139 -293 -139q-85 0 -135.5 33t-50.5 92z" />
<glyph unicode="&#x106;" horiz-adv-x="1450" d="M76 496q0 246 135.5 473t373.5 368.5t529 141.5q112 0 181 -35.5t122 -97.5q15 -18 30 -18q38 0 83 122h43q-68 -177 -131 -471h-45q20 118 20 177q0 90 -35 149q-38 65 -92 90.5t-133 25.5q-161 0 -301.5 -133.5t-224.5 -355.5t-84 -475q0 -207 70.5 -307.5 t197.5 -100.5q69 0 141.5 31.5t124.5 87.5q54 58 94 129t91 195h45q-97 -355 -121 -492h-45q6 44 6 70q0 52 -26 52q-16 0 -42 -18q-192 -133 -409 -133q-305 0 -451.5 136t-146.5 389zM913 1606q84 74 166 162t122.5 127t92.5 67q43 24 94 24q88 0 127 -71q15 -29 15 -55 q0 -75 -107 -136q-39 -21 -87 -35t-174 -43.5t-235 -64.5z" />
<glyph unicode="&#x107;" horiz-adv-x="991" d="M4 295q0 182 94.5 368t266.5 307.5t391 121.5q82 0 142.5 -29t92 -77.5t31.5 -106.5q0 -65 -33 -127.5t-88.5 -102t-118.5 -39.5q-37 0 -68.5 16.5t-51 49t-19.5 78.5q0 64 29 120t76.5 95.5t103.5 56.5q-28 25 -70 25q-99 0 -190.5 -109.5t-148 -282.5t-56.5 -352 q0 -106 43.5 -157.5t120.5 -51.5q65 0 125 37t121 127l41 -16q-177 -275 -469 -275q-107 0 -189.5 35.5t-129 108t-46.5 180.5zM598 1245q60 95 113 202.5t80.5 156.5t68.5 90q26 26 61 42t70 16q55 0 95 -40q34 -34 34 -77q0 -61 -67 -130q-32 -32 -74 -59t-154.5 -91.5 t-205.5 -129.5z" />
<glyph unicode="&#x118;" horiz-adv-x="1305" d="M-98 0l8 41q74 3 110.5 16t58.5 48t42 112l270 1016q17 65 17 98q0 31 -13.5 47t-42.5 22.5t-82 8.5l11 41q235 -6 710 -6q295 0 424 6q-50 -129 -78 -242q-11 -46 -26 -127h-45q1 119 -26.5 190t-82 101.5t-139.5 30.5h-6q-71 0 -106.5 -12t-57 -46.5t-41.5 -111.5 l-128 -483h36q64 0 123 31.5t103 84t67 113.5h45q-26 -79 -43.5 -148.5t-26.5 -101.5q-27 -102 -53 -250h-45q0 54 -19 106.5t-63.5 88t-116.5 35.5h-18l-131 -492q-18 -70 -18 -100q0 -29 13.5 -44t41.5 -20.5t79 -5.5h27q100 0 175.5 34.5t140.5 113t132 215.5h46 q-14 -36 -44 -148q-32 -117 -53 -262q-139 6 -463 6q-475 0 -712 -6zM594 -260q0 89 125.5 157t317.5 109h36q-64 -26 -109 -66t-67 -84t-22 -83q0 -54 59 -54q62 0 146 39l22 -34q-155 -109 -321 -109q-86 0 -136.5 33t-50.5 92z" />
<glyph unicode="&#x119;" horiz-adv-x="1016" d="M-6 260q0 201 103.5 394t283 315.5t395.5 122.5q115 0 184.5 -46t69.5 -135q0 -117 -93 -215t-240 -167t-313 -107q-7 -55 -7 -105q0 -112 43 -155t127 -43q51 0 131.5 35t155.5 108l32 -16q-78 -117 -211 -196t-307 -79q-98 0 -178.5 33.5t-128 98.5t-47.5 157zM76 -260 q0 89 125.5 157t316.5 109h37q-64 -26 -109 -66.5t-67 -85t-22 -85.5q0 -50 47 -50q28 0 60.5 17.5t60.5 44.5l30 -27q-116 -139 -293 -139q-85 0 -135.5 33t-50.5 92zM390 459q106 59 188 139q186 184 186 403q0 52 -33 52q-57 0 -128 -88.5t-130 -227t-83 -278.5z" />
<glyph unicode="&#x131;" horiz-adv-x="686" d="M40 165q0 68 30 159l188 565q11 29 11 51q0 35 -29 35q-32 0 -59 -29t-54 -100l-47 -125h-39l57 160q77 211 305 211q110 0 162 -53t52 -136q0 -49 -17 -98l-213 -631q-10 -30 -10 -50q0 -36 35 -36q60 0 108 129l43 115h39l-51 -150q-72 -211 -293 -211q-104 0 -161 49 t-57 145z" />
<glyph unicode="&#x141;" horiz-adv-x="1266" d="M-96 0l8 41q74 3 110.5 16t58.5 48t42 112l79 297l-167 -84l12 47l167 84l179 672q17 65 17 98q0 31 -13.5 47t-42.5 22.5t-82 8.5l11 41q119 -6 387 -6q214 0 358 6l-10 -41q-75 -3 -111.5 -16t-58 -48t-41.5 -112l-120 -452l374 188l-12 -47l-375 -188l-137 -517 q-18 -70 -18 -100q0 -29 13.5 -44t41.5 -20.5t79 -5.5h37q75 0 158.5 38.5t162.5 124.5t134 220h45q-21 -54 -49 -168q-32 -108 -54 -262q-139 6 -462 6q-484 0 -721 -6z" />
<glyph unicode="&#x142;" horiz-adv-x="672" d="M-29 502l9 61l167 112l207 691q10 37 10 57q0 41 -32 59.5t-107 18.5l14 43q163 1 293 22t256 62l-223 -750l223 148l-8 -61l-236 -157l-188 -634q-6 -22 -6 -38q0 -25 11.5 -36.5t27.5 -11.5q20 0 47.5 25.5t56.5 103.5l43 115h39l-51 -150q-41 -119 -121 -165t-170 -46 q-102 0 -159 53t-57 155q0 63 24 145l85 281z" />
<glyph unicode="&#x143;" horiz-adv-x="1763" d="M-174 68q0 64 30.5 113t82.5 75.5t116 26.5q84 0 133.5 -40.5t49.5 -111.5q0 -60 -28 -109t-76.5 -80.5t-108.5 -41.5q15 -17 51 -17q103 0 176 115q77 120 158.5 430t177.5 801v4q12 57 12 91t-14.5 51.5t-47.5 24.5t-96 9l11 41q64 -6 182 -6q95 0 166 6l447 -870 q157 649 284 833q90 131 221 131q71 0 125.5 -29t84.5 -79t30 -111q0 -64 -30.5 -113t-83 -75.5t-116.5 -26.5q-84 0 -133 40t-49 112q0 60 27.5 109t76 80.5t109.5 41.5q-16 16 -51 16q-50 0 -94.5 -30.5t-79.5 -81.5q-91 -136 -189 -477t-223 -930h-45l-536 975 q-173 -831 -291 -988q-45 -60 -95.5 -94.5t-123.5 -34.5q-71 0 -125.5 29t-84.5 79t-30 112zM1026 1606q84 74 166 162t122.5 127t92.5 67q43 24 94 24q88 0 127 -71q15 -29 15 -55q0 -75 -107 -136q-39 -21 -87 -35t-174 -43.5t-235 -64.5z" />
<glyph unicode="&#x144;" horiz-adv-x="1268" d="M6 0l250 889q12 45 12 59q0 27 -30 27q-32 0 -59 -29t-54 -100l-47 -125h-39l57 160q38 108 107 159.5t174 51.5q115 0 165.5 -54t50.5 -139q0 -44 -13 -94l-56 -213q80 200 153.5 308.5t148.5 150t171 41.5q201 0 201 -170q0 -59 -27 -140l-202 -608q-10 -30 -10 -49 q0 -37 34 -37q61 0 109 129l43 115h39l-51 -150q-74 -211 -293 -211q-132 0 -185 74q-34 46 -34 115q0 65 32 164l176 530q18 52 18 80q0 31 -22 31q-53 0 -137.5 -143.5t-171 -367t-145.5 -448.5l1 4l-3 -10h-363zM643 1247q60 95 113 202.5t80.5 156.5t68.5 90 q26 26 61 42t70 16q55 0 95 -40q34 -34 34 -77q0 -61 -67 -130q-32 -32 -74 -59t-154.5 -91.5t-205.5 -129.5z" />
<glyph unicode="&#x152;" horiz-adv-x="2089" d="M70 463q0 232 124.5 469t348.5 392t504 155q87 0 180 -35q59 -1 199 -1l350 1q295 0 424 6q-53 -138 -78 -242q-12 -47 -27 -127h-45q15 86 15 145q0 96 -42.5 136.5t-138.5 40.5h-88q-71 0 -106.5 -12t-57 -46.5t-41.5 -111.5l-128 -483h118q58 0 96.5 30.5t62 76 t52.5 122.5h45q-26 -79 -43.5 -148.5t-26.5 -101.5q-21 -78 -53 -250h-45q0 20 5 63t5 63q0 46 -22.5 73t-83.5 31h-121l-131 -492q-17 -66 -17 -99q0 -30 13.5 -45t41.5 -20.5t79 -5.5h108q99 0 162.5 34t110 111t94.5 218h45q-19 -50 -43 -148q-35 -127 -53 -262 q-140 6 -463 6q-340 0 -506 -2q-115 -33 -219 -33q-188 0 -324 58t-208 168.5t-72 265.5zM512 436q0 -202 55.5 -315t157.5 -113q60 0 99 23.5t55 81.5l297 1120q17 61 17 107q0 56 -32.5 79t-105.5 23q-142 0 -267.5 -147t-200.5 -380.5t-75 -478.5z" />
<glyph unicode="&#x153;" horiz-adv-x="1669" d="M0 319q0 168 98 349t275 302.5t401 121.5q79 0 140 -37.5t84 -109.5q197 147 432 147q114 0 183.5 -46t69.5 -135q0 -117 -93 -215t-240 -167t-313 -107q-7 -55 -7 -105q0 -112 43 -155t127 -43q51 0 131.5 35t155.5 108l33 -16q-79 -117 -212.5 -196t-306.5 -79 q-110 0 -197 41.5t-127 119.5q-56 -77 -141 -119t-182 -42q-170 0 -262 90.5t-92 257.5zM381 305q0 -190 133 -190q88 0 149 48q-16 45 -16 97q0 121 39.5 243.5t112.5 230.5t171 189q-38 68 -136 68q-104 0 -210 -98t-174.5 -257t-68.5 -331zM1042 456q132 64 209 144 q78 80 122 184t44 217q0 52 -33 52q-57 0 -128.5 -89t-130.5 -228.5t-83 -279.5z" />
<glyph unicode="&#x15a;" horiz-adv-x="1247" d="M-72 -14q68 162 140 491h41q-19 -53 -19 -141q0 -157 87 -237.5t247 -80.5q133 0 186.5 50t53.5 139q0 116 -52.5 211t-206 288t-153.5 357q0 135 82.5 229t207 140.5t249.5 46.5q87 0 156.5 -16t103.5 -31t102 -48q11 -5 34.5 -16.5t33.5 -11.5q16 0 31.5 25.5 t35.5 82.5h41q-78 -190 -121 -417h-41q13 55 13 112q0 124 -78.5 194t-216.5 70q-97 0 -159 -48t-62 -150q0 -135 150 -309t228 -282t78 -249q0 -139 -95 -232.5t-233 -137.5t-268 -44q-104 0 -170.5 10t-114 29t-112.5 56q-54 30 -70 30q-19 0 -31.5 -9t-24.5 -31.5 t-32 -69.5h-41zM709 1606q84 74 166 162t122.5 127t92.5 67q43 24 94 24q88 0 127 -71q15 -29 15 -55q0 -75 -107 -136q-39 -21 -87 -35t-174 -43.5t-235 -64.5z" />
<glyph unicode="&#x15b;" horiz-adv-x="913" d="M-43 233q0 78 38 130.5t101 52.5q60 0 96.5 -49.5t36.5 -130.5q0 -40 -9.5 -78.5t-23 -72t-24.5 -56.5q31 -15 72 -15q64 0 105.5 42.5t41.5 113.5q0 64 -30.5 137.5t-88.5 167.5q-48 78 -69.5 117t-37 88t-15.5 102q0 89 45.5 159t137 110.5t224.5 40.5q151 0 251.5 -54 t100.5 -182q0 -44 -17 -86t-49.5 -69t-78.5 -27q-61 0 -96 47.5t-35 124.5q0 60 20 112.5t45 79.5q-18 9 -51 9q-72 0 -108.5 -42t-36.5 -122q0 -50 22 -99t53 -99.5t46 -76.5q68 -116 95 -188t27 -141q0 -86 -47 -156t-139.5 -111t-222.5 -41q-165 0 -272 61t-107 201z M512 1247q60 95 113 202.5t80.5 156.5t68.5 90q26 26 61 42t70 16q55 0 95 -40q34 -34 34 -77q0 -61 -67 -130q-32 -32 -74 -59t-154.5 -91.5t-205.5 -129.5z" />
<glyph unicode="&#x178;" horiz-adv-x="1589" d="M150 1102l43 131q43 132 134.5 189t211.5 57q152 0 234 -80t120.5 -227.5t69.5 -415.5q128 395 303 600q105 123 243 123q71 0 125.5 -29t84.5 -79t30 -111q0 -64 -30.5 -113.5t-82.5 -76t-116 -26.5q-84 0 -133.5 40.5t-49.5 111.5q0 60 28 109t76.5 80.5t108.5 41.5 q-15 17 -51 17q-33 0 -63.5 -11t-67.5 -38q-53 -39 -126.5 -146t-148.5 -272.5t-130 -367.5l-99 -392q-11 -46 -11 -73q0 -41 19 -62.5t55.5 -29.5t98.5 -11l-10 -41q-129 6 -418 6q-251 0 -371 -6l11 41q74 3 111 16t59 48.5t41 111.5l105 419q-18 167 -50 318.5t-78.5 250 t-103.5 98.5q-36 0 -57 -27t-36 -70l-34 -104h-45zM577 1716q0 68 28 113t74 66.5t101 21.5q78 0 116 -43t38 -117q0 -67 -29 -111t-76 -64.5t-100 -20.5q-78 0 -115 41t-37 114zM1106 1716q0 68 28 113t73.5 66.5t100.5 21.5q78 0 116 -43t38 -117q0 -67 -29 -111 t-75.5 -64.5t-100.5 -20.5q-78 0 -114.5 41t-36.5 114z" />
<glyph unicode="&#x179;" horiz-adv-x="1356" d="M-61 17q0 28 38 62.5t115 63.5l576 566h-332l14 41h359l539 529q-214 -202 -425 -202q-82 0 -144.5 12.5t-145.5 37t-125 24.5q-60 0 -60 -47q0 -67 150 -96l-11 -39q-127 19 -213 77t-86 160q0 79 40.5 141t115 97t174.5 35q87 0 153.5 -20t200 -79t258.5 -59 q70 0 160 31q37 54 78 86.5t73 32.5q16 0 29 -11q12 -11 12 -27q0 -29 -38 -63t-115 -63l-567 -557h311l-16 -41h-336l-553 -543q218 207 432 207q82 0 144.5 -12.5t146 -37t125.5 -24.5q59 0 59 47q0 67 -149 96l8 39q127 -19 213 -77t86 -160q0 -79 -40.5 -141t-115 -97 t-174.5 -35q-86 0 -153 20t-200.5 79t-258.5 59q-70 0 -160 -31q-36 -53 -78 -86t-73 -33q-16 0 -29 11q-12 10 -12 27zM752 1606q84 74 166 162t122.5 127t92.5 67q43 24 94 24q88 0 127 -71q15 -29 15 -55q0 -75 -107 -136q-39 -21 -87 -35t-174 -43.5t-235 -64.5z" />
<glyph unicode="&#x17a;" horiz-adv-x="975" d="M-125 0l1043 944q-74 -26 -179 -103.5t-162.5 -114t-111.5 -36.5q-35 0 -58 10t-56.5 33t-59.5 23q-25 0 -39 -15t-14 -36q0 -34 19.5 -54t70.5 -43l-13 -30q-227 50 -227 221q0 72 38 136.5t112.5 105t179.5 40.5q64 0 111.5 -15t138.5 -58t178 -43q63 0 105 21t83 75 h64l-1018 -924q60 22 148 86.5t138 95.5t99 31q36 0 59 -9.5t56.5 -32.5t62.5 -23q25 0 38 16.5t13 34.5q0 71 -90 96l12 31q119 -28 173.5 -83.5t54.5 -148.5q0 -74 -31 -133t-92.5 -93t-149.5 -34q-63 0 -111.5 16t-145.5 62.5t-189 46.5q-59 0 -102 -21t-84 -75h-64z M536 1247q60 95 113 202.5t80.5 156.5t68.5 90q26 26 61 42t70 16q55 0 95 -40q34 -34 34 -77q0 -61 -67 -130q-32 -32 -74 -59t-154.5 -91.5t-205.5 -129.5z" />
<glyph unicode="&#x17b;" horiz-adv-x="1356" d="M-61 17q0 28 38 62.5t115 63.5l576 566h-332l14 41h359l539 529q-214 -202 -425 -202q-82 0 -144.5 12.5t-145.5 37t-125 24.5q-60 0 -60 -47q0 -67 150 -96l-11 -39q-127 19 -213 77t-86 160q0 79 40.5 141t115 97t174.5 35q87 0 153.5 -20t200 -79t258.5 -59 q70 0 160 31q37 54 78 86.5t73 32.5q16 0 29 -11q12 -11 12 -27q0 -29 -38 -63t-115 -63l-567 -557h311l-16 -41h-336l-553 -543q218 207 432 207q82 0 144.5 -12.5t146 -37t125.5 -24.5q59 0 59 47q0 67 -149 96l8 39q127 -19 213 -77t86 -160q0 -79 -40.5 -141t-115 -97 t-174.5 -35q-86 0 -153 20t-200.5 79t-258.5 59q-70 0 -160 -31q-36 -53 -78 -86t-73 -33q-16 0 -29 11q-12 10 -12 27zM691 1692q0 106 68.5 161.5t180.5 55.5q183 0 183 -140q0 -63 -33.5 -111.5t-91 -75t-127.5 -26.5q-89 0 -134.5 35t-45.5 101z" />
<glyph unicode="&#x17c;" horiz-adv-x="975" d="M-125 0l1043 944q-74 -26 -179 -103.5t-162.5 -114t-111.5 -36.5q-35 0 -58 10t-56.5 33t-59.5 23q-25 0 -39 -15t-14 -36q0 -34 19.5 -54t70.5 -43l-13 -30q-227 50 -227 221q0 72 38 136.5t112.5 105t179.5 40.5q64 0 111.5 -15t138.5 -58t178 -43q63 0 105 21t83 75 h64l-1018 -924q60 22 148 86.5t138 95.5t99 31q36 0 59 -9.5t56.5 -32.5t62.5 -23q25 0 38 16.5t13 34.5q0 71 -90 96l12 31q119 -28 173.5 -83.5t54.5 -148.5q0 -74 -31 -133t-92.5 -93t-149.5 -34q-63 0 -111.5 16t-145.5 62.5t-189 46.5q-59 0 -102 -21t-84 -75h-64z M483 1384q0 107 68.5 162.5t181.5 55.5q89 0 135.5 -35.5t46.5 -104.5q0 -63 -33.5 -111.5t-91 -75t-127.5 -26.5q-89 0 -134.5 34.5t-45.5 100.5z" />
<glyph unicode="&#x192;" horiz-adv-x="1163" d="M-332 -238q0 47 24 85t65.5 59.5t90.5 21.5q47 0 82.5 -19t54.5 -50.5t19 -67.5q0 -40 -23.5 -80t-68.5 -65q83 9 132 58.5t79 162.5l306 1145h-251l10 41h251l1 2q35 132 103 247.5t141 170.5q89 65 178.5 97t202.5 32q89 0 149 -31t88.5 -83t28.5 -116 q0 -59 -25.5 -116.5t-71.5 -93.5t-104 -36q-67 0 -105 36.5t-38 103.5q0 89 50 164.5t132 117.5q-17 21 -59 21q-59 0 -111 -74q-35 -50 -67 -141.5t-88 -298.5l-1 -2h343l-10 -41h-343l-208 -776q-47 -177 -127.5 -298t-204.5 -208q-84 -59 -184 -87t-199 -28 q-117 0 -179.5 38t-62.5 109z" />
<glyph unicode="&#x2c6;" horiz-adv-x="823" d="M55 1270q158 69 297 186t226 248h36q33 -156 88.5 -257t155.5 -177l-8 -29q-242 43 -406 111q-154 -65 -378 -111z" />
<glyph unicode="&#x2da;" horiz-adv-x="535" d="M27 1409q0 64 35 117t95.5 83.5t133.5 30.5q61 0 110.5 -22.5t78 -64t28.5 -95.5q0 -63 -38 -116.5t-100.5 -85t-133.5 -31.5q-60 0 -107.5 22t-74.5 64t-27 98zM82 1409q0 -44 23 -76t61 -48.5t80 -16.5q53 0 101 25t78 68t30 93q0 46 -25 78.5t-64 48.5t-81 16 q-54 0 -101 -26.5t-74.5 -70t-27.5 -91.5z" />
<glyph unicode="&#x2dc;" horiz-adv-x="842" d="M162 1300q57 169 150.5 251.5t197.5 82.5q59 0 98 -21.5t98 -74.5t113 -53q42 0 77.5 28t70.5 91l37 -11q-57 -168 -151 -250.5t-198 -82.5q-59 0 -97.5 21.5t-98 74.5t-113.5 53q-42 0 -77 -28t-70 -91z" />
<glyph unicode="&#x3a9;" horiz-adv-x="1810" d="M221 967q0 159 81 274t236.5 176.5t374.5 61.5t375 -61.5t237 -176.5t81 -274q0 -164 -75 -291t-240 -318t-242 -311h116q144 0 239.5 89.5t137.5 293.5h47q-6 -58 -6 -147q0 -125 14 -283q-90 6 -305 6q-50 0 -139 -2.5t-156 -3.5v33q82 161 151 395t69 498 q0 254 -70.5 385t-233.5 131q-162 0 -232.5 -131t-70.5 -385q0 -263 68.5 -496.5t150.5 -396.5v-33q-67 1 -155.5 3.5t-138.5 2.5q-216 0 -306 -6q15 154 15 283q0 89 -6 147h47q42 -204 137.5 -293.5t239.5 -89.5h116q-77 120 -242 311t-240 318t-75 291z" />
<glyph unicode="&#x3c0;" horiz-adv-x="1223" d="M-51 109q0 72 48.5 134.5t147.5 106.5q31 14 128.5 55t163 110.5t99.5 178.5h-67q-99 0 -168 -13.5t-121.5 -44t-101.5 -85.5l-33 14q64 161 140 266.5t187.5 162.5t270.5 57h590l-113 -357h-331l-46 -129q-14 -44 -14 -79q0 -51 29 -81t88 -30q145 0 270 172l35 -15 q-72 -207 -184 -384t-262 -177q-84 0 -119.5 48t-35.5 122q0 55 17 117q43 153 181 436h-173q-99 -433 -219 -583q-52 -69 -118 -104.5t-136 -35.5t-111.5 39t-41.5 99z" />
<glyph unicode="&#x2000;" horiz-adv-x="993" />
<glyph unicode="&#x2001;" horiz-adv-x="1986" />
<glyph unicode="&#x2002;" horiz-adv-x="993" />
<glyph unicode="&#x2003;" horiz-adv-x="1986" />
<glyph unicode="&#x2004;" horiz-adv-x="662" />
<glyph unicode="&#x2005;" horiz-adv-x="496" />
<glyph unicode="&#x2006;" horiz-adv-x="331" />
<glyph unicode="&#x2007;" horiz-adv-x="331" />
<glyph unicode="&#x2008;" horiz-adv-x="248" />
<glyph unicode="&#x2009;" horiz-adv-x="397" />
<glyph unicode="&#x200a;" horiz-adv-x="110" />
<glyph unicode="&#x2010;" horiz-adv-x="1038" d="M109 455l55 202h739l-55 -202h-739z" />
<glyph unicode="&#x2011;" horiz-adv-x="1038" d="M109 455l55 202h739l-55 -202h-739z" />
<glyph unicode="&#x2012;" horiz-adv-x="1038" d="M109 455l55 202h739l-55 -202h-739z" />
<glyph unicode="&#x2013;" horiz-adv-x="1362" d="M96 414l86 284h1055l-86 -284h-1055z" />
<glyph unicode="&#x2014;" horiz-adv-x="1962" d="M92 414l86 284h1655l-86 -284h-1655z" />
<glyph unicode="&#x2018;" horiz-adv-x="608" d="M246 1061q0 144 82 260.5t225 178.5l10 -37q-90 -38 -154.5 -113t-70.5 -168q61 64 143 64q77 0 118.5 -34.5t41.5 -100.5q0 -63 -30 -112.5t-82 -77.5t-117 -28q-166 0 -166 168z" />
<glyph unicode="&#x2019;" horiz-adv-x="590" d="M274 1327q0 63 30 112.5t82 77.5t117 28q166 0 166 -168q0 -144 -82 -260.5t-225 -178.5l-10 37q90 38 154.5 113t70.5 168q-61 -64 -143 -64q-77 0 -118.5 34.5t-41.5 100.5z" />
<glyph unicode="&#x201a;" horiz-adv-x="635" d="M-2 106q0 63 30 112.5t82 77.5t117 28q166 0 166 -168q0 -144 -82 -260.5t-225 -178.5l-10 37q90 38 154.5 113t70.5 168q-61 -64 -143 -64q-77 0 -118.5 34.5t-41.5 100.5z" />
<glyph unicode="&#x201c;" horiz-adv-x="1055" d="M245 1063q0 144 83 261.5t225 177.5l10 -37q-90 -38 -154.5 -113t-70.5 -168q59 64 143 64q77 0 118.5 -34.5t41.5 -100.5q0 -62 -30 -112t-82.5 -78t-117.5 -28q-166 0 -166 168zM690 1063q0 144 82.5 261.5t224.5 177.5l10 -37q-90 -38 -154.5 -113t-70.5 -168 q61 64 143 64q77 0 118.5 -34.5t41.5 -100.5q0 -63 -30 -112.5t-82 -77.5t-117 -28q-166 0 -166 168z" />
<glyph unicode="&#x201d;" horiz-adv-x="1034" d="M277 1333q0 63 30 112.5t82 77.5t117 28q166 0 166 -168q0 -144 -82.5 -261.5t-224.5 -177.5l-10 37q90 38 154.5 113t70.5 168q-61 -64 -143 -64q-77 0 -118.5 34.5t-41.5 100.5zM721 1333q0 62 30 112t82.5 78t117.5 28q166 0 166 -168q0 -144 -83 -261.5t-225 -177.5 l-10 37q90 38 154.5 113t70.5 168q-59 -64 -143 -64q-77 0 -118.5 34.5t-41.5 100.5z" />
<glyph unicode="&#x201e;" horiz-adv-x="1079" d="M-2 106q0 63 30 112.5t82 77.5t117 28q166 0 166 -168q0 -144 -82.5 -261.5t-224.5 -177.5l-10 37q90 38 154.5 113t70.5 168q-61 -64 -143 -64q-77 0 -118.5 34.5t-41.5 100.5zM442 106q0 62 30 112t82.5 78t117.5 28q166 0 166 -168q0 -144 -83 -261.5t-225 -177.5 l-10 37q90 38 154.5 113t70.5 168q-59 -64 -143 -64q-77 0 -118.5 34.5t-41.5 100.5z" />
<glyph unicode="&#x2020;" horiz-adv-x="770" d="M135 -278q0 128 76.5 464t148.5 602q20 12 31.5 28t22.5 38t20 37l33 12l25 -12q1 -11 -0.5 -36.5t2.5 -41t18 -25.5q-42 -157 -112.5 -394.5t-144 -448t-116.5 -264.5q-4 13 -4 41zM156 932l92 51l225 -51l254 51l64 -51l-91 -51l-227 49l-252 -49zM464 993q0 21 6 50.5 t22.5 97t16.5 91.5q0 21 -11 21q28 93 86 93q43 0 43 -53q0 -18 -6 -40q-23 0 -49 -90t-42.5 -139t-40.5 -61h-16q-9 6 -9 30z" />
<glyph unicode="&#x2021;" horiz-adv-x="803" d="M-55 74l90 51l225 -51l254 51l64 -51l-91 -51l-227 49l-250 -49zM107 -289q0 17 6 41q22 0 48.5 90t43 139.5t39.5 61.5h16q10 -7 10 -31q0 -22 -6 -52.5t-22.5 -96.5t-16.5 -90q0 -21 11 -21q-9 -34 -30.5 -63t-55.5 -29q-43 0 -43 51zM174 932l90 51l228 -51l251 51 l66 -51l-92 -51l-228 49l-251 -49zM223 217q7 24 88 291q19 86 29.5 134t18 77t18.5 69q20 11 31 26.5t23.5 40t19.5 36.5l32 12l25 -12q1 -15 0 -38.5t3 -39t17 -25.5q-18 -67 -39.5 -134t-46.5 -146q-22 -99 -36.5 -166t-30.5 -125q-21 -11 -33 -27.5t-22.5 -38.5 t-18.5 -36l-33 -13l-24 13q-1 8 -1 23q0 6 0.5 25t-4.5 32.5t-16 21.5zM482 994q0 21 6 51.5t22.5 96.5t16.5 90q0 21 -11 21q8 33 30 63t56 30q42 0 42 -53q0 -22 -5 -40q-22 0 -48.5 -90t-43 -139t-39.5 -61h-16q-10 7 -10 31z" />
<glyph unicode="&#x2022;" horiz-adv-x="862" d="M113 479q0 9 2 31q9 80 54.5 147t116 106.5t150.5 39.5q74 0 134.5 -34t95 -93.5t34.5 -131.5q0 -12 -2 -34q-8 -80 -53.5 -146.5t-116.5 -105.5t-151 -39q-74 0 -134.5 34t-95 93.5t-34.5 132.5z" />
<glyph unicode="&#x2026;" horiz-adv-x="1767" d="M-2 106q0 63 30 112.5t82 77.5t117 28q79 0 120.5 -35.5t41.5 -104.5q0 -54 -31 -103t-84 -79.5t-116 -30.5q-79 0 -119.5 34.5t-40.5 100.5zM573 106q0 63 30 112.5t82 77.5t117 28q79 0 120.5 -35.5t41.5 -104.5q0 -54 -31 -103t-84 -79.5t-116 -30.5 q-79 0 -119.5 34.5t-40.5 100.5zM1147 106q0 63 30 112.5t82 77.5t117 28q79 0 120.5 -35.5t41.5 -104.5q0 -54 -31 -103t-84 -79.5t-116 -30.5q-79 0 -119.5 34.5t-40.5 100.5z" />
<glyph unicode="&#x202f;" horiz-adv-x="397" />
<glyph unicode="&#x2030;" horiz-adv-x="2523" d="M45 -86l1706 1774l31 -27l-1706 -1774zM233 1151q0 98 64 193t175.5 155t246.5 60t212 -67.5t77 -186.5q0 -98 -63.5 -193t-174.5 -155t-246 -60q-136 0 -213.5 66.5t-77.5 187.5zM494 1051q0 -60 11.5 -93.5t33.5 -33.5q63 0 110.5 80t73 194t25.5 209q0 59 -12 92 t-34 33q-63 0 -110.5 -80t-72.5 -193.5t-25 -207.5zM762 225q0 98 64 193t175.5 155t245.5 60q135 0 212 -67t77 -187q0 -98 -63.5 -193t-174.5 -155t-245 -60q-137 0 -214 66.5t-77 187.5zM1022 125q0 -60 11.5 -93.5t33.5 -33.5q63 0 110.5 80t73 194t25.5 209 q0 59 -11.5 92t-33.5 33q-63 0 -110.5 -80t-73 -193.5t-25.5 -207.5zM1616 225q0 98 64 193t175.5 155t245.5 60q135 0 212 -67t77 -187q0 -98 -63.5 -193t-174.5 -155t-245 -60q-137 0 -214 66.5t-77 187.5zM1876 125q0 -60 11.5 -93.5t33.5 -33.5q63 0 110.5 80t73 194 t25.5 209q0 59 -11.5 92t-33.5 33q-63 0 -110.5 -80t-73 -193.5t-25.5 -207.5z" />
<glyph unicode="&#x2039;" horiz-adv-x="831" d="M31 510l10 41q188 110 363 239.5t382 301.5h37q-40 -86 -108.5 -198t-143.5 -211.5t-131 -152.5q32 -52 61 -152t46 -211t16 -196h-37q-119 164 -237 295.5t-258 243.5z" />
<glyph unicode="&#x203a;" horiz-adv-x="827" d="M-31 -29q40 86 108 197t142 210.5t129 151.5q-31 53 -59.5 153.5t-45.5 212.5t-16 196h37q123 -169 240 -299.5t258 -241.5l-10 -41q-191 -111 -367 -240t-379 -299h-37z" />
<glyph unicode="&#x2044;" horiz-adv-x="123" d="M-758 -86l1706 1774l31 -27l-1706 -1774z" />
<glyph unicode="&#x205f;" horiz-adv-x="496" />
<glyph unicode="&#x20ac;" horiz-adv-x="1411" d="M70 608l12 41h167q20 81 54 164h-178l12 41h184q75 168 195.5 309.5t281 228.5t343.5 87q133 0 217 -70q48 -41 74 -99t26 -122q0 -67 -27 -118.5t-72 -79t-97 -27.5q-69 0 -111.5 44.5t-42.5 114.5q0 85 60.5 152.5t146.5 105.5q-9 17 -41 30t-68 13q-88 0 -176.5 -76.5 t-164 -205.5t-130.5 -287h320l-35 -41h-299q-26 -82 -45 -164h209l-37 -41h-181q-30 -150 -30 -280q0 -109 17 -175.5t55 -98t102 -31.5q32 0 67 7t58 21q-38 28 -64 76t-26 100q0 69 28 123.5t75 84.5t102 30q76 0 114.5 -44t38.5 -120q0 -85 -54.5 -155t-145.5 -117 q-54 -28 -117.5 -43t-155.5 -15q-253 0 -380.5 114.5t-127.5 365.5q0 73 17 157h-170z" />
<glyph unicode="&#x2122;" horiz-adv-x="2431" d="M326 1450q120 -6 413 -6q291 0 412 6q-14 -112 -14 -201q0 -67 6 -106h-47q-15 92 -43.5 150.5t-62 84t-66.5 25.5h-50v-612q0 -60 10.5 -86t39.5 -36t96 -14v-41q-130 7 -281 7q-175 0 -282 -7v41q67 4 95.5 14t39 36t10.5 86v612h-49q-33 0 -66.5 -25.5t-62 -84 t-43.5 -150.5h-47q6 36 6 106q0 89 -14 201zM1227 614v41q48 4 68.5 12t28 30t7.5 73v524q0 51 -7.5 73.5t-28 30.5t-68.5 11v41q83 -6 252 -6q72 0 139 6l182 -453l170 447h158q142 0 219 6v-41q-48 -3 -68.5 -11t-28 -30.5t-7.5 -73.5v-524q0 -51 7.5 -73t28 -30t68.5 -12 v-41q-110 7 -240 7q-135 0 -221 -7v41q38 4 54.5 12t23 30.5t6.5 72.5v545l-268 -711h-33l-291 715v-549q0 -50 6.5 -72.5t23 -30.5t54.5 -12v-41q-49 7 -106 7q-76 0 -129 -7z" />
<glyph unicode="&#x2202;" horiz-adv-x="1100" d="M6 213q0 173 110 348t275 288.5t316 113.5q94 0 136.5 -58.5t42.5 -152.5q0 -91 -36 -191q176 146 176 344q0 107 -74.5 167.5t-206.5 60.5q-113 0 -230 -41t-267 -134l-17 23q258 498 631 498q107 0 161 -103t54 -282q0 -309 -107 -566.5t-292 -407t-410 -149.5 q-69 0 -128 24t-96.5 78.5t-37.5 139.5zM80 387q0 -27 29 -41t110 -14q65 0 169 21.5t218 66.5t206 111q-19 47 -62 63t-107 16q-112 0 -245.5 -35t-225.5 -87.5t-92 -100.5z" />
<glyph unicode="&#x220f;" horiz-adv-x="2109" d="M266 -330q65 3 94.5 16t40.5 48t11 112v1387q0 77 -11 112t-40.5 48t-94.5 16v41q111 -6 344 -6q37 0 163 3t271 3q136 0 259.5 -3t160.5 -3q234 0 344 6v-41q-65 -3 -94 -16t-40 -48t-11 -112v-1387q0 -77 11 -112t40 -48t94 -16v-41q-109 6 -344 6q-207 0 -321 -6v41 q65 3 94.5 16t40 48t10.5 112v1387q0 77 -12.5 113.5t-46.5 49.5t-107 13h-170q-72 0 -106.5 -13t-47 -49.5t-12.5 -113.5v-1387q0 -77 11 -112t40.5 -48t94.5 -16v-41q-114 6 -322 6q-233 0 -344 -6v41z" />
<glyph unicode="&#x2211;" horiz-adv-x="1587" d="M268 1409v41q181 -6 580 -6q358 0 510 6q-15 -205 -15 -344q0 -87 7 -148h-47q-36 238 -136.5 341.5t-240.5 103.5h-236l393 -606l-729 -750h289q211 0 347.5 52t214.5 176t98 339h47q-7 -107 -7 -229q0 -233 15 -385q-164 6 -551 6q-375 0 -518 -6v41l514 533z" />
<glyph unicode="&#x221a;" horiz-adv-x="1303" d="M70 825v43q115 -12 262 -12q119 0 307 12v-43q-25 0 -25 -26q0 -19 13 -51l196 -488l363 1198q10 38 10 54q0 26 -29 26v43q77 -8 174 -8q137 0 220 8v-43q-208 -10 -244 -16q-27 -5 -43.5 -13.5t-29.5 -28.5t-25 -57l-433 -1423q-8 -29 -45 -29q-22 0 -59.5 9.5 t-64.5 15.5t-48 4l-286 680q-24 58 -48 86.5t-60.5 41t-104.5 17.5z" />
<glyph unicode="&#x221e;" horiz-adv-x="1772" d="M131 723q0 164 79.5 234.5t235.5 70.5q81 0 176.5 -39.5t219.5 -113.5q23 9 147.5 59.5t225 76t174.5 25.5q150 0 225.5 -79.5t75.5 -227.5q0 -164 -80 -234.5t-236 -70.5q-80 0 -176 39.5t-219 113.5q-23 -9 -147.5 -59.5t-225 -76t-174.5 -25.5q-98 0 -166 40 t-101.5 109.5t-33.5 157.5zM219 852q0 -48 38 -77.5t101 -29.5q91 0 196 29t240 82q-222 131 -348 131q-110 0 -168.5 -36.5t-58.5 -98.5zM1027 596q220 -131 347 -131q111 0 169.5 36.5t58.5 98.5q0 48 -38.5 77.5t-101.5 29.5q-91 0 -196 -29t-239 -82z" />
<glyph unicode="&#x222b;" horiz-adv-x="993" d="M-180 -193q0 72 54.5 115t145.5 43q87 0 136 -38.5t49 -112.5q0 -48 -29.5 -90t-89.5 -64q36 -4 55 -4q82 0 119 40t46 107t9 197v1053q0 122 14 203.5t45.5 138.5t86.5 104q51 46 139 74.5t186 28.5q159 0 266 -56.5t107 -177.5q0 -50 -22.5 -90.5t-63.5 -64t-94 -23.5 q-84 0 -134 45.5t-50 118.5q0 66 35 115.5t98 72.5q-25 19 -80 19q-66 0 -102 -35t-49 -100t-13 -166v-1096q0 -122 -14 -203.5t-45.5 -138.5t-85.5 -105q-118 -102 -387 -102q-125 0 -228.5 41.5t-103.5 150.5z" />
<glyph unicode="&#x2248;" horiz-adv-x="1434" d="M27 301q48 138 122.5 244.5t159 164.5t162.5 58q73 0 129 -25.5t165 -99.5t210 -74q208 0 344 201l35 -6q-52 -144 -134 -255t-176 -172t-182 -61q-76 0 -134 25.5t-171.5 99.5t-218.5 74q-164 0 -277 -180zM139 696q52 144 134 255t176 172t182 61q76 0 134 -25.5 t171.5 -99.5t218.5 -74q164 0 277 180l36 -6q-49 -138 -124 -244t-159.5 -164.5t-162.5 -58.5q-73 0 -129 25.5t-165 99.5t-210 74q-209 0 -344 -201z" />
<glyph unicode="&#x2260;" horiz-adv-x="1268" d="M98 553l18 61h447l195 226h-578l18 61h613l248 287l47 -33l-219 -254h337l-18 -61h-372l-195 -226h503l-18 -61h-538l-248 -287l-47 33l219 254h-412z" />
<glyph unicode="&#x2264;" horiz-adv-x="1268" d="M-61 0l18 62h1026l-18 -62h-1026zM160 727l1131 465l20 -59l-997 -414l678 -357l-33 -65z" />
<glyph unicode="&#x2265;" horiz-adv-x="1243" d="M-43 0l18 62h1026l-18 -62h-1026zM100 377l942 393l-758 406l33 59l879 -473l-1075 -445z" />
<glyph unicode="&#x25ca;" horiz-adv-x="1008" d="M41 504l430 956h33l430 -870l-430 -957h-33zM229 825l402 -809l112 252l-401 807z" />
<glyph unicode="&#x25fc;" horiz-adv-x="1090" d="M0 0v1090h1090v-1090h-1090z" />
</font>
</defs>
</svg>
